999
"DXF R12 Output" (www.mydxf.blogspot.com)
 0 
SECTION
 2 
HEADER
 9 
$ACADVER
 1 
AC1009
 9 
$EXTMIN
 10 
 0 
 20 
 0 
 9 
$EXTMAX
 10 
 8.5 
 20 
 11 
 0 
ENDSEC
 0 
SECTION
 2 
ENTITIES
0
LINE
8
Layer 1
10
0.793749
20
297.793749
11
-0.793749
21
296.206251
0
LINE
8
Layer 1
10
0.000000
20
298.322915
11
0.000000
21
295.677085
0
LINE
8
Layer 1
10
2.116664
20
295.941668
11
1.058332
21
294.883336
0
LINE
8
Layer 1
10
1.587498
20
296.470834
11
0.529166
21
295.412502
0
LINE
8
Layer 1
10
1.058332
20
297.000000
11
0.000000
21
295.941668
0
LINE
8
Layer_1
10
127.115240
20
118.272565
11
127.411970
21
118.272565
0
LINE
8
Layer_1
10
127.411970
20
118.272565
11
127.263610
21
118.233765
0
LINE
8
Layer_1
10
127.263610
20
118.233765
11
127.115240
21
118.272565
0
LINE
8
Layer_1
10
113.555385
20
131.532048
11
111.332163
21
131.730718
0
LINE
8
Layer_1
10
111.332163
20
131.730718
11
109.822208
21
132.104863
0
LINE
8
Layer_1
10
109.822208
20
132.104863
11
108.899044
21
132.472917
0
LINE
8
Layer_1
10
108.899044
20
132.472917
11
109.011851
21
132.686459
0
LINE
8
Layer_1
10
109.011851
20
132.686459
11
109.420253
21
132.796217
0
LINE
8
Layer_1
10
109.420253
20
132.796217
11
111.430157
21
133.232591
0
LINE
8
Layer_1
10
111.430157
20
133.232591
11
113.910821
21
134.022695
0
LINE
8
Layer_1
10
113.910821
20
134.022695
11
115.725600
21
134.822115
0
LINE
8
Layer_1
10
115.725600
20
134.822115
11
117.280939
21
135.683392
0
LINE
8
Layer_1
10
117.280939
20
135.683392
11
118.717099
21
136.694307
0
LINE
8
Layer_1
10
118.717099
20
136.694307
11
120.174339
21
137.942641
0
LINE
8
Layer_1
10
120.174339
20
137.942641
11
121.524202
21
139.153614
0
LINE
8
Layer_1
10
121.524202
20
139.153614
11
121.745821
21
139.290363
0
LINE
8
Layer_1
10
121.745821
20
139.290363
11
121.833247
21
139.246699
0
LINE
8
Layer_1
10
121.833247
20
139.246699
11
121.821039
21
138.779685
0
LINE
8
Layer_1
10
121.821039
20
138.779685
11
121.556017
21
137.907772
0
LINE
8
Layer_1
10
121.556017
20
137.907772
11
120.486968
21
135.551553
0
LINE
8
Layer_1
10
120.486968
20
135.551553
11
118.886708
21
133.196454
0
LINE
8
Layer_1
10
118.886708
20
133.196454
11
117.460312
21
131.556748
0
LINE
8
Layer_1
10
117.460312
20
131.556748
11
116.314743
21
131.453484
0
LINE
8
Layer_1
10
116.314743
20
131.453484
11
113.555385
21
131.532048
0
LINE
8
Layer_1
10
75.102960
20
133.276256
11
75.314909
21
133.276256
0
LINE
8
Layer_1
10
75.314909
20
133.276256
11
75.208934
21
133.233456
0
LINE
8
Layer_1
10
75.208934
20
133.233456
11
75.102960
21
133.276256
0
LINE
8
Layer_1
10
105.560031
20
137.801831
11
104.281734
21
138.066833
0
LINE
8
Layer_1
10
104.281734
20
138.066833
11
103.790777
21
138.291500
0
LINE
8
Layer_1
10
103.790777
20
138.291500
11
103.339460
21
140.200039
0
LINE
8
Layer_1
10
103.339460
20
140.200039
11
103.016643
21
142.269865
0
LINE
8
Layer_1
10
103.016643
20
142.269865
11
103.024022
21
142.458512
0
LINE
8
Layer_1
10
103.024022
20
142.458512
11
103.124631
21
142.528293
0
LINE
8
Layer_1
10
103.124631
20
142.528293
11
104.076388
21
142.344365
0
LINE
8
Layer_1
10
104.076388
20
142.344365
11
105.588499
21
142.212410
0
LINE
8
Layer_1
10
105.588499
20
142.212410
11
107.153223
21
142.341365
0
LINE
8
Layer_1
10
107.153223
20
142.341365
11
108.908825
21
142.907854
0
LINE
8
Layer_1
10
108.908825
20
142.907854
11
111.670003
21
144.182217
0
LINE
8
Layer_1
10
111.670003
20
144.182217
11
114.063223
21
145.500501
0
LINE
8
Layer_1
10
114.063223
20
145.500501
11
115.013948
21
146.229511
0
LINE
8
Layer_1
10
115.013948
20
146.229511
11
115.809455
21
147.027843
0
LINE
8
Layer_1
10
115.809455
20
147.027843
11
116.456066
21
147.902830
0
LINE
8
Layer_1
10
116.456066
20
147.902830
11
116.960103
21
148.861807
0
LINE
8
Layer_1
10
116.960103
20
148.861807
11
117.384652
21
149.567586
0
LINE
8
Layer_1
10
117.384652
20
149.567586
11
118.672200
21
148.453457
0
LINE
8
Layer_1
10
119.779139
20
146.714979
11
119.553762
21
145.421476
0
LINE
8
Layer_1
10
119.553762
20
145.421476
11
119.101855
21
144.212638
0
LINE
8
Layer_1
10
119.101855
20
144.212638
11
118.423853
21
143.089359
0
LINE
8
Layer_1
10
118.423853
20
143.089359
11
117.520192
21
142.052535
0
LINE
8
Layer_1
10
117.520192
20
142.052535
11
115.856059
21
140.783043
0
LINE
8
Layer_1
10
115.856059
20
140.783043
11
113.634823
21
139.586605
0
LINE
8
Layer_1
10
113.634823
20
139.586605
11
111.137788
21
138.593748
0
LINE
8
Layer_1
10
111.137788
20
138.593748
11
108.646257
21
137.935000
0
LINE
8
Layer_1
10
108.646257
20
137.935000
11
106.993901
21
137.767876
0
LINE
8
Layer_1
10
106.993901
20
137.767876
11
105.560061
21
137.801691
0
LINE
8
Layer_1
10
118.672200
20
148.453457
11
119.829139
21
147.311809
0
LINE
8
Layer_1
10
119.829139
20
147.311809
11
119.779139
21
146.714979
0
LINE
8
Layer_1
10
99.657541
20
154.048680
11
99.255574
21
155.330426
0
LINE
8
Layer_1
10
99.255574
20
155.330426
11
99.240267
21
156.499033
0
LINE
8
Layer_1
10
99.240267
20
156.499033
11
99.614356
21
157.571598
0
LINE
8
Layer_1
10
99.614356
20
157.571598
11
100.380579
21
158.565215
0
LINE
8
Layer_1
10
100.380579
20
158.565215
11
101.589896
21
159.539202
0
LINE
8
Layer_1
10
101.589896
20
159.539202
11
103.370993
21
160.520712
0
LINE
8
Layer_1
10
103.370993
20
160.520712
11
105.361746
21
161.298773
0
LINE
8
Layer_1
10
105.361746
20
161.298773
11
107.031703
21
161.520678
0
LINE
8
Layer_1
10
107.031703
20
161.520678
11
107.756353
21
161.422701
0
LINE
8
Layer_1
10
107.756353
20
161.422701
11
108.412767
21
161.185240
0
LINE
8
Layer_1
10
108.412767
20
161.185240
11
109.536841
21
160.291272
0
LINE
8
Layer_1
10
109.536841
20
160.291272
11
110.206812
21
159.355631
0
LINE
8
Layer_1
10
110.206812
20
159.355631
11
110.510540
21
158.724054
0
LINE
8
Layer_1
10
110.510540
20
158.724054
11
109.391304
21
158.652654
0
LINE
8
Layer_1
10
109.391304
20
158.652654
11
107.849080
21
158.537484
0
LINE
8
Layer_1
10
107.849080
20
158.537484
11
106.472071
21
158.053497
0
LINE
8
Layer_1
10
106.472071
20
158.053497
11
104.755796
21
157.252542
0
LINE
8
Layer_1
10
104.755796
20
157.252542
11
103.048607
21
156.311842
0
LINE
8
Layer_1
10
103.048607
20
156.311842
11
101.698856
21
155.408618
0
LINE
8
Layer_1
10
101.698856
20
155.408618
11
100.599527
21
154.257000
0
LINE
8
Layer_1
10
100.599527
20
154.257000
11
99.981107
21
153.567731
0
LINE
8
Layer_1
10
99.981107
20
153.567731
11
99.657541
21
154.048670
0
LINE
8
Layer_1
10
105.560061
20
137.801691
11
105.560031
21
137.801831
0
LINE
8
Layer_1
10
122.923955
20
154.303370
11
123.086445
21
154.296370
0
LINE
8
Layer_1
10
123.086445
20
154.296370
11
122.975175
21
154.251870
0
LINE
8
Layer_1
10
122.975175
20
154.251870
11
122.923975
21
154.303070
0
LINE
8
Layer_1
10
123.856524
20
154.303370
11
124.019024
21
154.296370
0
LINE
8
Layer_1
10
124.019024
20
154.296370
11
123.907754
21
154.251870
0
LINE
8
Layer_1
10
123.907754
20
154.251870
11
123.856554
21
154.303070
0
LINE
8
Layer_1
10
122.923975
20
154.303070
11
122.923955
21
154.303370
0
LINE
8
Layer_1
10
114.059185
20
155.490808
11
114.355916
21
155.490808
0
LINE
8
Layer_1
10
114.355916
20
155.490808
11
114.207546
21
155.452008
0
LINE
8
Layer_1
10
114.207546
20
155.452008
11
114.059185
21
155.490808
0
LINE
8
Layer_1
10
123.856554
20
154.303070
11
123.856524
21
154.303370
0
LINE
8
Layer_1
10
115.627604
20
155.488808
11
115.839554
21
155.488808
0
LINE
8
Layer_1
10
115.839554
20
155.488808
11
115.733584
21
155.446008
0
LINE
8
Layer_1
10
115.733584
20
155.446008
11
115.627604
21
155.488808
0
LINE
8
Layer_1
10
87.185218
20
176.603322
11
87.609117
21
176.602322
0
LINE
8
Layer_1
10
87.609117
20
176.602322
11
87.618481
21
176.576822
0
LINE
8
Layer_1
10
87.618481
20
176.576822
11
87.374807
21
176.566922
0
LINE
8
Layer_1
10
87.374807
20
176.566922
11
87.144257
21
176.578149
0
LINE
8
Layer_1
10
87.144257
20
176.578149
11
87.185218
21
176.603522
0
LINE
8
Layer_1
10
110.711379
20
186.097760
11
111.050498
21
186.095760
0
LINE
8
Layer_1
10
111.050498
20
186.095760
11
110.858755
21
186.058860
0
LINE
8
Layer_1
10
110.858755
20
186.058860
11
110.675578
21
186.070900
0
LINE
8
Layer_1
10
110.675578
20
186.070900
11
110.711379
21
186.097460
0
LINE
8
Layer_1
10
87.185218
20
176.603522
11
87.185218
21
176.603322
0
LINE
8
Layer_1
10
120.248099
20
195.506779
11
120.544828
21
195.506779
0
LINE
8
Layer_1
10
120.544828
20
195.506779
11
120.396458
21
195.468009
0
LINE
8
Layer_1
10
120.396458
20
195.468009
11
120.248099
21
195.506779
0
LINE
8
Layer_1
10
110.711379
20
186.097460
11
110.711379
21
186.097760
0
LINE
8
Layer_1
10
102.306133
20
110.223505
11
97.595214
21
118.459565
0
LINE
8
Layer_1
10
97.595214
20
118.459565
11
97.464778
21
118.980774
0
LINE
8
Layer_1
10
97.464778
20
118.980774
11
98.683470
21
121.201422
0
LINE
8
Layer_1
10
98.683470
20
121.201422
11
100.944665
21
125.250686
0
LINE
8
Layer_1
10
100.944665
20
125.250686
11
102.181673
21
127.345086
0
LINE
8
Layer_1
10
102.181673
20
127.345086
11
102.559567
21
127.775121
0
LINE
8
Layer_1
10
102.559567
20
127.775121
11
102.902619
21
127.967973
0
LINE
8
Layer_1
10
102.902619
20
127.967973
11
103.708358
21
128.011007
0
LINE
8
Layer_1
10
103.708358
20
128.011007
11
104.333580
21
127.874273
0
LINE
8
Layer_1
10
104.333580
20
127.874273
11
104.275500
21
127.289314
0
LINE
8
Layer_1
10
104.275500
20
127.289314
11
104.223698
21
126.876865
0
LINE
8
Layer_1
10
104.223698
20
126.876865
11
104.311411
21
126.520936
0
LINE
8
Layer_1
10
104.311411
20
126.520936
11
105.161639
21
125.445396
0
LINE
8
Layer_1
10
105.161639
20
125.445396
11
105.997504
21
124.349708
0
LINE
8
Layer_1
10
105.997504
20
124.349708
11
106.892962
21
122.905769
0
LINE
8
Layer_1
10
106.892962
20
122.905769
11
108.351395
21
119.867213
0
LINE
8
Layer_1
10
108.351395
20
119.867213
11
108.970306
21
117.766418
0
LINE
8
Layer_1
10
108.970306
20
117.766418
11
109.192857
21
115.641578
0
LINE
8
Layer_1
10
109.192857
20
115.641578
11
109.268345
21
114.326051
0
LINE
8
Layer_1
10
109.268345
20
114.326051
11
109.439252
21
113.974700
0
LINE
8
Layer_1
10
109.439252
20
113.974700
11
109.777925
21
113.848891
0
LINE
8
Layer_1
10
109.777925
20
113.848891
11
109.979479
21
113.883791
0
LINE
8
Layer_1
10
109.979479
20
113.883791
11
110.258047
21
114.581830
0
LINE
8
Layer_1
10
110.258047
20
114.581830
11
110.209739
21
115.964773
0
LINE
8
Layer_1
10
110.209739
20
115.964773
11
109.960084
21
117.856336
0
LINE
8
Layer_1
10
109.960084
20
117.856336
11
109.189802
21
120.468315
0
LINE
8
Layer_1
10
109.189802
20
120.468315
11
107.728936
21
123.385589
0
LINE
8
Layer_1
10
107.728936
20
123.385589
11
106.761988
21
124.948422
0
LINE
8
Layer_1
10
106.761988
20
124.948422
11
105.868197
21
126.066445
0
LINE
8
Layer_1
10
105.868197
20
126.066445
11
105.367451
21
126.831161
0
LINE
8
Layer_1
10
105.367451
20
126.831161
11
105.385510
21
127.606143
0
LINE
8
Layer_1
10
109.154913
20
127.961103
11
112.276272
21
127.937332
0
LINE
8
Layer_1
10
112.276272
20
127.937332
11
112.957144
21
127.813533
0
LINE
8
Layer_1
10
112.957144
20
127.813533
11
117.937851
21
118.968234
0
LINE
8
Layer_1
10
117.937851
20
118.968234
11
115.437936
21
114.395006
0
LINE
8
Layer_1
10
115.437936
20
114.395006
11
112.800953
21
109.957026
0
LINE
8
Layer_1
10
112.800953
20
109.957026
11
107.589011
21
109.905826
0
LINE
8
Layer_1
10
105.385510
20
127.606143
11
105.481360
21
127.962103
0
LINE
8
Layer_1
10
105.481360
20
127.962103
11
109.154913
21
127.961103
0
LINE
8
Layer_1
10
93.589422
20
118.277265
11
95.285014
21
118.277135
0
LINE
8
Layer_1
10
95.285014
20
118.277135
11
95.470425
21
118.266412
0
LINE
8
Layer_1
10
95.470425
20
118.266412
11
95.367538
21
118.257648
0
LINE
8
Layer_1
10
95.367538
20
118.257648
11
94.411514
21
118.249635
0
LINE
8
Layer_1
10
94.411514
20
118.249635
11
93.470593
21
118.257815
0
LINE
8
Layer_1
10
93.470593
20
118.257815
11
93.384051
21
118.266606
0
LINE
8
Layer_1
10
93.384051
20
118.266606
11
93.589422
21
118.277335
0
LINE
8
Layer_1
10
107.589011
20
109.905826
11
102.510371
21
109.905826
0
LINE
8
Layer_1
10
102.510371
20
109.905826
11
102.306133
21
110.223505
0
LINE
8
Layer_1
10
124.699023
20
118.277145
11
126.267451
21
118.277145
0
LINE
8
Layer_1
10
126.267451
20
118.277145
11
126.448181
21
118.266273
0
LINE
8
Layer_1
10
126.448181
20
118.266273
11
126.360565
21
118.257370
0
LINE
8
Layer_1
10
126.360565
20
118.257370
11
125.483232
21
118.249145
0
LINE
8
Layer_1
10
125.483232
20
118.249145
11
124.605900
21
118.257370
0
LINE
8
Layer_1
10
124.605900
20
118.257370
11
124.518290
21
118.266273
0
LINE
8
Layer_1
10
124.518290
20
118.266273
11
124.699023
21
118.277145
0
LINE
8
Layer_1
10
85.286893
20
118.532045
11
85.212927
21
118.638022
0
LINE
8
Layer_1
10
85.212927
20
118.638022
11
85.318903
21
118.564045
0
LINE
8
Layer_1
10
85.318903
20
118.564045
11
85.435258
21
118.383675
0
LINE
8
Layer_1
10
85.435258
20
118.383675
11
85.286894
21
118.532035
0
LINE
8
Layer_1
10
118.979680
20
119.463714
11
118.458741
21
120.264193
0
LINE
8
Layer_1
10
118.458741
20
120.264193
11
115.996504
21
124.587957
0
LINE
8
Layer_1
10
114.206966
20
129.031022
11
114.795625
21
130.048380
0
LINE
8
Layer_1
10
115.996504
20
124.587957
11
113.843215
21
128.345282
0
LINE
8
Layer_1
10
113.843215
20
128.345282
11
114.206966
21
129.031022
0
LINE
8
Layer_1
10
116.415603
20
130.424100
11
117.595834
21
130.489641
0
LINE
8
Layer_1
10
117.595834
20
130.489641
11
118.073001
21
130.625330
0
LINE
8
Layer_1
10
118.073001
20
130.625330
11
118.890840
21
131.601618
0
LINE
8
Layer_1
10
118.890840
20
131.601618
11
120.006369
21
133.079697
0
LINE
8
Layer_1
10
120.006369
20
133.079697
11
120.963921
21
134.338844
0
LINE
8
Layer_1
10
120.963921
20
134.338844
11
121.727937
21
135.731213
0
LINE
8
Layer_1
10
121.727937
20
135.731213
11
122.364696
21
136.818092
0
LINE
8
Layer_1
10
122.364696
20
136.818092
11
124.280773
21
136.947052
0
LINE
8
Layer_1
10
124.280773
20
136.947052
11
126.212391
21
137.002551
0
LINE
8
Layer_1
10
126.212391
20
137.002551
11
126.612854
21
136.912318
0
LINE
8
Layer_1
10
126.612854
20
136.912318
11
126.867330
21
136.297482
0
LINE
8
Layer_1
10
126.867330
20
136.297482
11
127.370381
21
134.955467
0
LINE
8
Layer_1
10
127.370381
20
134.955467
11
128.271351
21
133.314866
0
LINE
8
Layer_1
10
128.271351
20
133.314866
11
129.486867
21
131.511350
0
LINE
8
Layer_1
10
129.486867
20
131.511350
11
130.933555
21
129.680591
0
LINE
8
Layer_1
10
130.933555
20
129.680591
11
131.517513
21
129.049372
0
LINE
8
Layer_1
10
131.517513
20
129.049372
11
131.836084
21
128.896382
0
LINE
8
Layer_1
10
131.836084
20
128.896382
11
132.192758
21
129.042060
0
LINE
8
Layer_1
10
132.192758
20
129.042060
11
132.350383
21
129.371691
0
LINE
8
Layer_1
10
132.350383
20
129.371691
11
131.862904
21
130.138810
0
LINE
8
Layer_1
10
131.862904
20
130.138810
11
130.654265
21
131.631148
0
LINE
8
Layer_1
10
130.654265
20
131.631148
11
129.662544
21
133.023756
0
LINE
8
Layer_1
10
129.662544
20
133.023756
11
128.712192
21
134.617666
0
LINE
8
Layer_1
10
128.712192
20
134.617666
11
128.016747
21
136.023650
0
LINE
8
Layer_1
10
128.016747
20
136.023650
11
127.789749
21
136.852482
0
LINE
8
Layer_1
10
127.789749
20
136.852482
11
127.942966
21
136.969775
0
LINE
8
Layer_1
10
127.942966
20
136.969775
11
128.493848
21
137.014521
0
LINE
8
Layer_1
10
128.493848
20
137.014521
11
129.264377
21
136.972121
0
LINE
8
Layer_1
10
129.264377
20
136.972121
11
134.385091
21
128.294032
0
LINE
8
Layer_1
10
134.385091
20
128.294032
11
132.148465
21
123.977748
0
LINE
8
Layer_1
10
132.148465
20
123.977748
11
129.701997
21
119.595283
0
LINE
8
Layer_1
10
129.701997
20
119.595283
11
129.180827
21
119.366084
0
LINE
8
Layer_1
10
129.180827
20
119.366084
11
124.011854
21
119.276884
0
LINE
8
Layer_1
10
114.795625
20
130.048380
11
115.020535
21
130.380000
0
LINE
8
Layer_1
10
115.020535
20
130.380000
11
116.415603
21
130.424100
0
LINE
8
Layer_1
10
86.003128
20
119.507014
11
83.403274
21
123.959415
0
LINE
8
Layer_1
10
83.403274
20
123.959415
11
81.061876
21
128.294773
0
LINE
8
Layer_1
10
81.061876
20
128.294773
11
82.063120
21
130.168050
0
LINE
8
Layer_1
10
124.011854
20
119.276884
11
119.191690
21
119.229584
0
LINE
8
Layer_1
10
119.191690
20
119.229584
11
118.979680
21
119.463714
0
LINE
8
Layer_1
10
83.899353
20
131.964808
11
85.362682
21
132.308608
0
LINE
8
Layer_1
10
85.362682
20
132.308608
11
86.841522
21
132.841077
0
LINE
8
Layer_1
10
86.841522
20
132.841077
11
87.673987
21
133.135336
0
LINE
8
Layer_1
10
87.673987
20
133.135336
11
88.204708
21
132.676707
0
LINE
8
Layer_1
10
88.204708
20
132.676707
11
88.912221
21
132.044783
0
LINE
8
Layer_1
10
88.912221
20
132.044783
11
89.882503
21
131.404725
0
LINE
8
Layer_1
10
89.882503
20
131.404725
11
90.909085
21
130.877251
0
LINE
8
Layer_1
10
90.909085
20
130.877251
11
91.785497
21
130.583080
0
LINE
8
Layer_1
10
91.785497
20
130.583080
11
93.262932
21
130.544108
0
LINE
8
Layer_1
10
93.262932
20
130.544108
11
94.868198
21
130.725330
0
LINE
8
Layer_1
10
94.868198
20
130.725330
11
95.720002
21
131.024521
0
LINE
8
Layer_1
10
95.720002
20
131.024521
11
96.551126
21
131.522582
0
LINE
8
Layer_1
10
96.551126
20
131.522582
11
97.346605
21
132.208622
0
LINE
8
Layer_1
10
97.346605
20
132.208622
11
98.091477
21
133.071747
0
LINE
8
Layer_1
10
98.091477
20
133.071747
11
98.564921
21
133.559226
0
LINE
8
Layer_1
10
98.564921
20
133.559226
11
100.051870
21
131.131814
0
LINE
8
Layer_1
10
100.051870
20
131.131814
11
101.475455
21
128.489422
0
LINE
8
Layer_1
10
101.475455
20
128.489422
11
100.193311
21
125.988426
0
LINE
8
Layer_1
10
100.193311
20
125.988426
11
97.066895
21
120.403423
0
LINE
8
Layer_1
10
97.066895
20
120.403423
11
96.668569
21
119.798229
0
LINE
8
Layer_1
10
96.668569
20
119.798229
11
96.191885
21
119.475704
0
LINE
8
Layer_1
10
96.191885
20
119.475704
11
95.176894
21
119.343090
0
LINE
8
Layer_1
10
95.176894
20
119.343090
11
91.013913
21
119.318124
0
LINE
8
Layer_1
10
82.063120
20
130.168050
11
83.061212
21
131.821248
0
LINE
8
Layer_1
10
83.061212
20
131.821248
11
83.899353
21
131.964808
0
LINE
8
Layer_1
10
135.585399
20
128.302893
11
135.628199
21
128.408872
0
LINE
8
Layer_1
10
135.628199
20
128.408872
11
135.628199
21
128.196923
0
LINE
8
Layer_1
10
135.628199
20
128.196923
11
135.585399
21
128.302893
0
LINE
8
Layer_1
10
91.013913
20
119.318124
11
86.175059
21
119.316124
0
LINE
8
Layer_1
10
86.175059
20
119.316124
11
86.003128
21
119.507014
0
LINE
8
Layer_1
10
102.355907
20
129.191361
11
101.995739
21
129.678851
0
LINE
8
Layer_1
10
101.995739
20
129.678851
11
100.615102
21
132.160368
0
LINE
8
Layer_1
10
100.615102
20
132.160368
11
99.343823
21
134.586045
0
LINE
8
Layer_1
10
99.343823
20
134.586045
11
99.732885
21
135.688183
0
LINE
8
Layer_1
10
99.732885
20
135.688183
11
100.992460
21
139.303049
0
LINE
8
Layer_1
10
100.992460
20
139.303049
11
101.914729
21
142.037195
0
LINE
8
Layer_1
10
101.914729
20
142.037195
11
102.287011
21
140.447577
0
LINE
8
Layer_1
10
102.287011
20
140.447577
11
103.026401
21
137.119972
0
LINE
8
Layer_1
10
103.026401
20
137.119972
11
103.526927
21
134.801063
0
LINE
8
Layer_1
10
103.526927
20
134.801063
11
104.029725
21
131.547978
0
LINE
8
Layer_1
10
104.029725
20
131.547978
11
104.275735
21
129.539933
0
LINE
8
Layer_1
10
104.275735
20
129.539933
11
104.257643
21
129.164945
0
LINE
8
Layer_1
10
104.257643
20
129.164945
11
104.154234
21
129.032592
0
LINE
8
Layer_1
10
104.154234
20
129.032592
11
103.312942
21
128.981092
0
LINE
8
Layer_1
10
103.312942
20
128.981092
11
102.681858
21
129.016071
0
LINE
8
Layer_1
10
102.681858
20
129.016071
11
102.355907
21
129.191322
0
LINE
8
Layer_1
10
105.407427
20
129.082872
11
105.305692
21
129.456881
0
LINE
8
Layer_1
10
105.305692
20
129.456881
11
105.060259
21
131.495829
0
LINE
8
Layer_1
10
105.060259
20
131.495829
11
104.787590
21
134.152685
0
LINE
8
Layer_1
10
104.787590
20
134.152685
11
105.949400
21
133.217396
0
LINE
8
Layer_1
10
105.949400
20
133.217396
11
107.348045
21
132.161830
0
LINE
8
Layer_1
10
107.348045
20
132.161830
11
108.965819
21
131.360726
0
LINE
8
Layer_1
10
108.965819
20
131.360726
11
110.784916
21
130.821031
0
LINE
8
Layer_1
10
110.784916
20
130.821031
11
112.787532
21
130.549690
0
LINE
8
Layer_1
10
112.787532
20
130.549690
11
113.744488
21
130.417170
0
LINE
8
Layer_1
10
113.744488
20
130.417170
11
113.455191
21
129.732664
0
LINE
8
Layer_1
10
113.455191
20
129.732664
11
112.953062
21
129.070681
0
LINE
8
Layer_1
10
112.953062
20
129.070681
11
109.121310
21
128.975742
0
LINE
8
Layer_1
10
109.121310
20
128.975742
11
105.407427
21
129.082882
0
LINE
8
Layer_1
10
114.526466
20
131.499698
11
114.865585
21
131.497698
0
LINE
8
Layer_1
10
114.865585
20
131.497698
11
114.673836
21
131.460799
0
LINE
8
Layer_1
10
114.673836
20
131.460799
11
114.490662
21
131.472839
0
LINE
8
Layer_1
10
114.490662
20
131.472839
11
114.526466
21
131.499399
0
LINE
8
Layer_1
10
93.500133
20
131.580698
11
93.712082
21
131.580698
0
LINE
8
Layer_1
10
93.712082
20
131.580698
11
93.606107
21
131.537898
0
LINE
8
Layer_1
10
93.606107
20
131.537898
11
93.500133
21
131.580698
0
LINE
8
Layer_1
10
114.526466
20
131.499399
11
114.526466
21
131.499698
0
LINE
8
Layer_1
10
112.406972
20
131.584698
11
112.746090
21
131.582698
0
LINE
8
Layer_1
10
112.746090
20
131.582698
11
112.554348
21
131.545799
0
LINE
8
Layer_1
10
112.554348
20
131.545799
11
112.371170
21
131.557838
0
LINE
8
Layer_1
10
112.371170
20
131.557838
11
112.406972
21
131.584398
0
LINE
8
Layer_1
10
111.558187
20
131.665698
11
111.770136
21
131.665698
0
LINE
8
Layer_1
10
111.770136
20
131.665698
11
111.664162
21
131.622898
0
LINE
8
Layer_1
10
111.664162
20
131.622898
11
111.558187
21
131.665698
0
LINE
8
Layer_1
10
112.406972
20
131.584398
11
112.406972
21
131.584698
0
LINE
8
Layer_1
10
111.054809
20
131.752298
11
111.217303
21
131.745298
0
LINE
8
Layer_1
10
111.217303
20
131.745298
11
111.106030
21
131.700798
0
LINE
8
Layer_1
10
111.106030
20
131.700798
11
111.054810
21
131.751998
0
LINE
8
Layer_1
10
81.466728
20
131.921848
11
81.629223
21
131.914848
0
LINE
8
Layer_1
10
81.629223
20
131.914848
11
81.517949
21
131.870348
0
LINE
8
Layer_1
10
81.517949
20
131.870348
11
81.466729
21
131.921548
0
LINE
8
Layer_1
10
111.054810
20
131.751998
11
111.054809
21
131.752298
0
LINE
8
Layer_1
10
117.937851
20
131.980748
11
118.086221
21
132.129108
0
LINE
8
Layer_1
10
118.086221
20
132.129108
11
118.192191
21
132.203078
0
LINE
8
Layer_1
10
118.192191
20
132.203078
11
118.118221
21
132.097108
0
LINE
8
Layer_1
10
118.118221
20
132.097108
11
117.937851
21
131.980758
0
LINE
8
Layer_1
10
81.466729
20
131.921548
11
81.466728
21
131.921848
0
LINE
8
Layer_1
10
108.821750
20
132.461127
11
108.867880
21
132.666850
0
LINE
8
Layer_1
10
108.867880
20
132.666850
11
109.062580
21
132.796537
0
LINE
8
Layer_1
10
109.062580
20
132.796537
11
108.996860
21
132.682227
0
LINE
8
Layer_1
10
108.996860
20
132.682227
11
108.900880
21
132.470277
0
LINE
8
Layer_1
10
108.900880
20
132.470277
11
108.918840
21
132.372677
0
LINE
8
Layer_1
10
108.918840
20
132.372677
11
108.821760
21
132.461177
0
LINE
8
Layer_1
10
96.531003
20
132.881317
11
96.990918
21
133.305216
0
LINE
8
Layer_1
10
96.990918
20
133.305216
11
96.615783
21
132.881317
0
LINE
8
Layer_1
10
96.615783
20
132.881317
11
96.155870
21
132.457417
0
LINE
8
Layer_1
10
96.155870
20
132.457417
11
96.531003
21
132.881317
0
LINE
8
Layer_1
10
109.613556
20
132.854417
11
109.776050
21
132.847417
0
LINE
8
Layer_1
10
109.776050
20
132.847417
11
109.664777
21
132.802917
0
LINE
8
Layer_1
10
109.664777
20
132.802917
11
109.613557
21
132.854117
0
LINE
8
Layer_1
10
81.970108
20
132.937417
11
82.182057
21
132.937417
0
LINE
8
Layer_1
10
82.182057
20
132.937417
11
82.076082
21
132.894617
0
LINE
8
Layer_1
10
82.076082
20
132.894617
11
81.970108
21
132.937417
0
LINE
8
Layer_1
10
109.613557
20
132.854117
11
109.613556
21
132.854417
0
LINE
8
Layer_1
10
83.241801
20
132.937417
11
83.453751
21
132.937417
0
LINE
8
Layer_1
10
83.453751
20
132.937417
11
83.347776
21
132.894617
0
LINE
8
Layer_1
10
83.347776
20
132.894617
11
83.241801
21
132.937417
0
LINE
8
Layer_1
10
81.381949
20
133.023917
11
81.544443
21
133.016917
0
LINE
8
Layer_1
10
81.544443
20
133.016917
11
81.433171
21
132.972417
0
LINE
8
Layer_1
10
81.433171
20
132.972417
11
81.381950
21
133.023617
0
LINE
8
Layer_1
10
71.796555
20
133.276486
11
72.008504
21
133.276486
0
LINE
8
Layer_1
10
72.008504
20
133.276486
11
71.902531
21
133.233686
0
LINE
8
Layer_1
10
71.902531
20
133.233686
11
71.796555
21
133.276486
0
LINE
8
Layer_1
10
81.381950
20
133.023617
11
81.381949
21
133.023917
0
LINE
8
Layer_1
10
73.873656
20
133.282486
11
74.679062
21
133.282486
0
LINE
8
Layer_1
10
74.679062
20
133.282486
11
74.726883
21
133.260024
0
LINE
8
Layer_1
10
74.726883
20
133.260024
11
74.276358
21
133.250686
0
LINE
8
Layer_1
10
74.276358
20
133.250686
11
73.825835
21
133.260024
0
LINE
8
Layer_1
10
73.825835
20
133.260024
11
73.873656
21
133.282486
0
LINE
8
Layer_1
10
97.166851
20
133.591296
11
97.315214
21
133.739666
0
LINE
8
Layer_1
10
97.315214
20
133.739666
11
97.421189
21
133.813628
0
LINE
8
Layer_1
10
97.421189
20
133.813628
11
97.347224
21
133.707666
0
LINE
8
Layer_1
10
97.347224
20
133.707666
11
97.166852
21
133.591306
0
LINE
8
Layer_1
10
74.468278
20
134.298305
11
74.892177
21
134.297305
0
LINE
8
Layer_1
10
74.892177
20
134.297305
11
74.901541
21
134.271805
0
LINE
8
Layer_1
10
74.901541
20
134.271805
11
74.657867
21
134.261905
0
LINE
8
Layer_1
10
74.657867
20
134.261905
11
74.427318
21
134.273132
0
LINE
8
Layer_1
10
74.427318
20
134.273132
11
74.468278
21
134.298505
0
LINE
8
Layer_1
10
76.888630
20
134.295305
11
77.051124
21
134.288305
0
LINE
8
Layer_1
10
77.051124
20
134.288305
11
76.939851
21
134.243805
0
LINE
8
Layer_1
10
76.939851
20
134.243805
11
76.888631
21
134.295005
0
LINE
8
Layer_1
10
74.468278
20
134.298505
11
74.468278
21
134.298305
0
LINE
8
Layer_1
10
73.493136
20
134.382105
11
73.832254
21
134.380105
0
LINE
8
Layer_1
10
73.832254
20
134.380105
11
73.640512
21
134.343205
0
LINE
8
Layer_1
10
73.640512
20
134.343205
11
73.457334
21
134.355245
0
LINE
8
Layer_1
10
73.457334
20
134.355245
11
73.493136
21
134.381805
0
LINE
8
Layer_1
10
76.888631
20
134.295005
11
76.888630
21
134.295305
0
LINE
8
Layer_1
10
73.493136
20
134.381805
11
73.493136
21
134.382105
0
LINE
8
Layer_1
10
68.744490
20
134.796494
11
68.905994
21
134.576485
0
LINE
8
Layer_1
10
68.905994
20
134.576485
11
68.715240
21
134.767244
0
LINE
8
Layer_1
10
68.715240
20
134.767244
11
68.553736
21
134.957994
0
LINE
8
Layer_1
10
68.553736
20
134.957994
11
68.744490
21
134.796494
0
LINE
8
Layer_1
10
90.469262
20
135.032394
11
90.617627
21
135.180754
0
LINE
8
Layer_1
10
90.617627
20
135.180754
11
90.723601
21
135.254724
0
LINE
8
Layer_1
10
90.723601
20
135.254724
11
90.649637
21
135.148754
0
LINE
8
Layer_1
10
90.649637
20
135.148754
11
90.469263
21
135.032404
0
LINE
8
Layer_1
10
116.157484
20
135.036394
11
116.327043
21
135.169534
0
LINE
8
Layer_1
10
116.327043
20
135.169534
11
116.496603
21
135.217834
0
LINE
8
Layer_1
10
116.496603
20
135.217834
11
116.327043
21
135.084704
0
LINE
8
Layer_1
10
116.327043
20
135.084704
11
116.157484
21
135.036304
0
LINE
8
Layer_1
10
69.592286
20
135.474313
11
69.753790
21
135.254314
0
LINE
8
Layer_1
10
69.753790
20
135.254314
11
69.563036
21
135.445064
0
LINE
8
Layer_1
10
69.563036
20
135.445064
11
69.401532
21
135.635823
0
LINE
8
Layer_1
10
69.401532
20
135.635823
11
69.592286
21
135.474313
0
LINE
8
Layer_1
10
91.613786
20
136.102113
11
92.159547
21
136.610782
0
LINE
8
Layer_1
10
92.159547
20
136.610782
11
91.698567
21
136.102113
0
LINE
8
Layer_1
10
91.698567
20
136.102113
11
91.152807
21
135.593433
0
LINE
8
Layer_1
10
91.152807
20
135.593433
11
91.613786
21
136.102113
0
LINE
8
Layer_1
10
89.791026
20
135.795003
11
89.939390
21
135.943363
0
LINE
8
Layer_1
10
89.939390
20
135.943363
11
90.045364
21
136.017333
0
LINE
8
Layer_1
10
90.045364
20
136.017333
11
89.971400
21
135.911363
0
LINE
8
Layer_1
10
89.971400
20
135.911363
11
89.791027
21
135.795013
0
LINE
8
Layer_1
10
67.948854
20
137.161851
11
67.958313
21
137.629028
0
LINE
8
Layer_1
10
67.958313
20
137.629028
11
67.980493
21
137.561711
0
LINE
8
Layer_1
10
67.980493
20
137.561711
11
67.980092
21
136.713922
0
LINE
8
Layer_1
10
67.980092
20
136.713922
11
67.957865
21
136.680539
0
LINE
8
Layer_1
10
67.957865
20
136.680539
11
67.948852
21
137.161851
0
LINE
8
Layer_1
10
118.531311
20
136.558012
11
118.679670
21
136.706382
0
LINE
8
Layer_1
10
118.679670
20
136.706382
11
118.785648
21
136.780344
0
LINE
8
Layer_1
10
118.785648
20
136.780344
11
118.711670
21
136.674382
0
LINE
8
Layer_1
10
118.711670
20
136.674382
11
118.531301
21
136.558022
0
LINE
8
Layer_1
10
118.997600
20
136.949902
11
119.193440
21
137.119461
0
LINE
8
Layer_1
10
119.193440
20
137.119461
11
119.082380
21
136.949902
0
LINE
8
Layer_1
10
119.082380
20
136.949902
11
118.886540
21
136.780342
0
LINE
8
Layer_1
10
118.886540
20
136.780342
11
118.997600
21
136.949902
0
LINE
8
Layer_1
10
119.548669
20
137.416191
11
119.790169
21
137.628141
0
LINE
8
Layer_1
10
119.790169
20
137.628141
11
119.633449
21
137.416191
0
LINE
8
Layer_1
10
119.633449
20
137.416191
11
119.391939
21
137.204241
0
LINE
8
Layer_1
10
119.391939
20
137.204241
11
119.548669
21
137.416191
0
LINE
8
Layer_1
10
91.825735
20
137.840601
11
92.328622
21
138.306890
0
LINE
8
Layer_1
10
92.328622
20
138.306890
11
91.910515
21
137.840601
0
LINE
8
Layer_1
10
91.910515
20
137.840601
11
91.407630
21
137.374311
0
LINE
8
Layer_1
10
91.407630
20
137.374311
11
91.825735
21
137.840601
0
LINE
8
Layer_1
10
93.521328
20
138.010160
11
93.851319
21
138.306890
0
LINE
8
Layer_1
10
93.851319
20
138.306890
11
93.606107
21
138.010160
0
LINE
8
Layer_1
10
93.606107
20
138.010160
11
93.276116
21
137.713431
0
LINE
8
Layer_1
10
93.276116
20
137.713431
11
93.521328
21
138.010160
0
LINE
8
Layer_1
10
105.708395
20
137.769580
11
105.920345
21
137.769580
0
LINE
8
Layer_1
10
105.920345
20
137.769580
11
105.814370
21
137.726781
0
LINE
8
Layer_1
10
105.814370
20
137.726781
11
105.708395
21
137.769580
0
LINE
8
Layer_1
10
107.320196
20
137.773581
11
107.659314
21
137.771581
0
LINE
8
Layer_1
10
107.659314
20
137.771581
11
107.467572
21
137.734681
0
LINE
8
Layer_1
10
107.467572
20
137.734681
11
107.284394
21
137.746721
0
LINE
8
Layer_1
10
107.284394
20
137.746721
11
107.320196
21
137.773281
0
LINE
8
Layer_1
10
105.205016
20
137.856281
11
105.367510
21
137.849281
0
LINE
8
Layer_1
10
105.367510
20
137.849281
11
105.256237
21
137.804781
0
LINE
8
Layer_1
10
105.256237
20
137.804781
11
105.205018
21
137.855981
0
LINE
8
Layer_1
10
107.320196
20
137.773281
11
107.320196
21
137.773581
0
LINE
8
Layer_1
10
108.167004
20
137.854280
11
108.378953
21
137.854280
0
LINE
8
Layer_1
10
108.378953
20
137.854280
11
108.272978
21
137.811481
0
LINE
8
Layer_1
10
108.272978
20
137.811481
11
108.167004
21
137.854280
0
LINE
8
Layer_1
10
105.205018
20
137.855981
11
105.205016
21
137.856281
0
LINE
8
Layer_1
10
69.033410
20
138.052470
11
69.076170
21
138.158440
0
LINE
8
Layer_1
10
69.076170
20
138.158440
11
69.076170
21
137.946490
0
LINE
8
Layer_1
10
69.076170
20
137.946490
11
69.033410
21
138.052470
0
LINE
8
Layer_1
10
108.680980
20
137.940820
11
108.843474
21
137.933820
0
LINE
8
Layer_1
10
108.843474
20
137.933820
11
108.732201
21
137.889320
0
LINE
8
Layer_1
10
108.732201
20
137.889320
11
108.680981
21
137.940520
0
LINE
8
Layer_1
10
122.864065
20
137.955020
11
122.794793
21
138.162044
0
LINE
8
Layer_1
10
122.794793
20
138.162044
11
122.897165
21
138.814139
0
LINE
8
Layer_1
10
122.897165
20
138.814139
11
123.020435
21
140.075513
0
LINE
8
Layer_1
10
123.020435
20
140.075513
11
122.967784
21
141.531862
0
LINE
8
Layer_1
10
122.967784
20
141.531862
11
122.753364
21
143.026839
0
LINE
8
Layer_1
10
122.753364
20
143.026839
11
122.391326
21
144.404092
0
LINE
8
Layer_1
10
122.391326
20
144.404092
11
122.219516
21
145.075401
0
LINE
8
Layer_1
10
122.219516
20
145.075401
11
122.710798
21
144.838762
0
LINE
8
Layer_1
10
122.710798
20
144.838762
11
124.644103
21
143.426843
0
LINE
8
Layer_1
10
124.644103
20
143.426843
11
126.706430
21
141.776446
0
LINE
8
Layer_1
10
126.706430
20
141.776446
11
126.687430
21
139.892108
0
LINE
8
Layer_1
10
126.687430
20
139.892108
11
126.580969
21
138.474325
0
LINE
8
Layer_1
10
126.580969
20
138.474325
11
126.444171
21
138.074170
0
LINE
8
Layer_1
10
126.444171
20
138.074170
11
125.064312
21
137.966990
0
LINE
8
Layer_1
10
125.064312
20
137.966990
11
123.406114
21
137.920590
0
LINE
8
Layer_1
10
123.406114
20
137.920590
11
122.864045
21
137.955090
0
LINE
8
Layer_1
10
108.680981
20
137.940520
11
108.680980
21
137.940820
0
LINE
8
Layer_1
10
120.777968
20
138.561190
11
121.323727
21
139.069869
0
LINE
8
Layer_1
10
121.323727
20
139.069869
11
120.862748
21
138.561190
0
LINE
8
Layer_1
10
120.862748
20
138.561190
11
120.316988
21
138.052510
0
LINE
8
Layer_1
10
120.316988
20
138.052510
11
120.777968
21
138.561190
0
LINE
8
Layer_1
10
127.709129
20
140.121108
11
127.669929
21
142.325845
0
LINE
8
Layer_1
10
127.669929
20
142.325845
11
125.415132
21
144.085553
0
LINE
8
Layer_1
10
125.415132
20
144.085553
11
122.146819
21
146.586410
0
LINE
8
Layer_1
10
122.146819
20
146.586410
11
120.467438
21
148.097328
0
LINE
8
Layer_1
10
120.467438
20
148.097328
11
118.838950
21
149.646326
0
LINE
8
Layer_1
10
118.838950
20
149.646326
11
118.083451
21
150.408225
0
LINE
8
Layer_1
10
118.083451
20
150.408225
11
122.459486
21
148.909036
0
LINE
8
Layer_1
10
122.459486
20
148.909036
11
125.259287
21
148.057371
0
LINE
8
Layer_1
10
125.259287
20
148.057371
11
127.652709
21
147.802278
0
LINE
8
Layer_1
10
127.652709
20
147.802278
11
129.108708
21
147.933796
0
LINE
8
Layer_1
10
129.108708
20
147.933796
11
130.401874
21
148.328989
0
LINE
8
Layer_1
10
130.401874
20
148.328989
11
131.533219
21
148.988295
0
LINE
8
Layer_1
10
131.533219
20
148.988295
11
132.503753
21
149.912155
0
LINE
8
Layer_1
10
132.503753
20
149.912155
11
132.941893
21
150.345555
0
LINE
8
Layer_1
10
132.941893
20
150.345555
11
133.769488
21
148.994721
0
LINE
8
Layer_1
10
133.769488
20
148.994721
11
134.500280
21
147.499138
0
LINE
8
Layer_1
10
134.500280
20
147.499138
11
133.560112
21
145.676371
0
LINE
8
Layer_1
10
133.560112
20
145.676371
11
131.077385
21
141.231746
0
LINE
8
Layer_1
10
131.077385
20
141.231746
11
129.354057
21
138.243260
0
LINE
8
Layer_1
10
129.354057
20
138.243260
11
129.087780
21
138.083824
0
LINE
8
Layer_1
10
129.087780
20
138.083824
11
128.428008
21
138.052510
0
LINE
8
Layer_1
10
68.016054
20
138.730749
11
68.058814
21
138.836719
0
LINE
8
Layer_1
10
68.058814
20
138.836719
11
68.058814
21
138.624770
0
LINE
8
Layer_1
10
68.058814
20
138.624770
11
68.016054
21
138.730749
0
LINE
8
Layer_1
10
128.428008
20
138.052510
11
127.672069
21
138.052510
0
LINE
8
Layer_1
10
127.672069
20
138.052510
11
127.709129
21
140.121108
0
LINE
8
Layer_1
10
94.241954
20
138.815549
11
94.437793
21
138.985109
0
LINE
8
Layer_1
10
94.437793
20
138.985109
11
94.326734
21
138.815549
0
LINE
8
Layer_1
10
94.326734
20
138.815549
11
94.130896
21
138.645989
0
LINE
8
Layer_1
10
94.130896
20
138.645989
11
94.241954
21
138.815549
0
LINE
8
Layer_1
10
69.111496
20
138.864949
11
69.162716
21
138.916149
0
LINE
8
Layer_1
10
69.162716
20
138.916149
11
69.156016
21
138.753659
0
LINE
8
Layer_1
10
69.156016
20
138.753659
11
69.111486
21
138.864929
0
LINE
8
Layer_1
10
121.851096
20
138.900249
11
121.893896
21
139.006219
0
LINE
8
Layer_1
10
121.893896
20
139.006219
11
121.893896
21
138.794269
0
LINE
8
Layer_1
10
121.893896
20
138.794269
11
121.851096
21
138.900249
0
LINE
8
Layer_1
10
92.927871
20
139.027419
11
93.169377
21
139.239359
0
LINE
8
Layer_1
10
93.169377
20
139.239359
11
93.012650
21
139.027419
0
LINE
8
Layer_1
10
93.012650
20
139.027419
11
92.771145
21
138.815469
0
LINE
8
Layer_1
10
92.771145
20
138.815469
11
92.927871
21
139.027419
0
LINE
8
Layer_1
10
121.807057
20
139.281749
11
121.840356
21
139.408918
0
LINE
8
Layer_1
10
121.840356
20
139.408918
11
121.922457
21
139.281749
0
LINE
8
Layer_1
10
121.922457
20
139.281749
11
121.889156
21
139.154589
0
LINE
8
Layer_1
10
121.889156
20
139.154589
11
121.807057
21
139.281749
0
LINE
8
Layer_1
10
68.094141
20
139.373549
11
68.145361
21
139.424748
0
LINE
8
Layer_1
10
68.145361
20
139.424748
11
68.138661
21
139.262259
0
LINE
8
Layer_1
10
68.138661
20
139.262259
11
68.094131
21
139.373529
0
LINE
8
Layer_1
10
94.623463
20
139.271319
11
94.771827
21
139.419689
0
LINE
8
Layer_1
10
94.771827
20
139.419689
11
94.877802
21
139.493651
0
LINE
8
Layer_1
10
94.877802
20
139.493651
11
94.803836
21
139.387689
0
LINE
8
Layer_1
10
94.803836
20
139.387689
11
94.623464
21
139.271329
0
LINE
8
Layer_1
10
93.521328
20
139.695218
11
93.669692
21
139.843588
0
LINE
8
Layer_1
10
93.669692
20
139.843588
11
93.775666
21
139.917550
0
LINE
8
Layer_1
10
93.775666
20
139.917550
11
93.701702
21
139.811588
0
LINE
8
Layer_1
10
93.701702
20
139.811588
11
93.521329
21
139.695228
0
LINE
8
Layer_1
10
93.945226
20
140.203898
11
94.093590
21
140.352267
0
LINE
8
Layer_1
10
94.093590
20
140.352267
11
94.199565
21
140.426230
0
LINE
8
Layer_1
10
94.199565
20
140.426230
11
94.125600
21
140.320267
0
LINE
8
Layer_1
10
94.125600
20
140.320267
11
93.945227
21
140.203908
0
LINE
8
Layer_1
10
103.192895
20
140.645247
11
103.244115
21
140.696447
0
LINE
8
Layer_1
10
103.244115
20
140.696447
11
103.237415
21
140.533947
0
LINE
8
Layer_1
10
103.237415
20
140.533947
11
103.192885
21
140.645227
0
LINE
8
Layer_1
10
94.369124
20
140.712547
11
94.517488
21
140.860907
0
LINE
8
Layer_1
10
94.517488
20
140.860907
11
94.623462
21
140.934877
0
LINE
8
Layer_1
10
94.623462
20
140.934877
11
94.549498
21
140.828907
0
LINE
8
Layer_1
10
94.549498
20
140.828907
11
94.369125
21
140.712557
0
LINE
8
Layer_1
10
103.108116
20
141.069106
11
103.159336
21
141.120306
0
LINE
8
Layer_1
10
103.159336
20
141.120306
11
103.152636
21
140.957816
0
LINE
8
Layer_1
10
103.152636
20
140.957816
11
103.108106
21
141.069086
0
LINE
8
Layer_1
10
116.581383
20
141.221226
11
116.729743
21
141.369586
0
LINE
8
Layer_1
10
116.729743
20
141.369586
11
116.835717
21
141.443556
0
LINE
8
Layer_1
10
116.835717
20
141.443556
11
116.761743
21
141.337586
0
LINE
8
Layer_1
10
116.761743
20
141.337586
11
116.581373
21
141.221236
0
LINE
8
Layer_1
10
103.030029
20
141.613296
11
103.072789
21
141.719266
0
LINE
8
Layer_1
10
103.072789
20
141.719266
11
103.072789
21
141.507316
0
LINE
8
Layer_1
10
103.072789
20
141.507316
11
103.030029
21
141.613296
0
LINE
8
Layer_1
10
117.174832
20
141.740466
11
117.416342
21
141.952415
0
LINE
8
Layer_1
10
117.416342
20
141.952415
11
117.259612
21
141.740466
0
LINE
8
Layer_1
10
117.259612
20
141.740466
11
117.018113
21
141.528516
0
LINE
8
Layer_1
10
117.018113
20
141.528516
11
117.174832
21
141.740466
0
LINE
8
Layer_1
10
102.945249
20
142.291525
11
102.988009
21
142.397505
0
LINE
8
Layer_1
10
102.988009
20
142.397505
11
102.988009
21
142.185555
0
LINE
8
Layer_1
10
102.988009
20
142.185555
11
102.945249
21
142.291525
0
LINE
8
Layer_1
10
104.611559
20
142.264625
11
104.774053
21
142.257625
0
LINE
8
Layer_1
10
104.774053
20
142.257625
11
104.662780
21
142.213125
0
LINE
8
Layer_1
10
104.662780
20
142.213125
11
104.611560
21
142.264325
0
LINE
8
Layer_1
10
106.345856
20
142.265465
11
106.600195
21
142.262465
0
LINE
8
Layer_1
10
106.600195
20
142.262465
11
106.450217
21
142.223365
0
LINE
8
Layer_1
10
106.450217
20
142.223365
11
106.345856
21
142.265565
0
LINE
8
Layer_1
10
104.611560
20
142.264325
11
104.611559
21
142.264625
0
LINE
8
Layer_1
10
104.102882
20
142.349365
11
104.265376
21
142.342365
0
LINE
8
Layer_1
10
104.265376
20
142.342365
11
104.154103
21
142.297865
0
LINE
8
Layer_1
10
104.154103
20
142.297865
11
104.102883
21
142.349065
0
LINE
8
Layer_1
10
106.345856
20
142.265565
11
106.345856
21
142.265465
0
LINE
8
Layer_1
10
106.985388
20
142.349365
11
107.147882
21
142.342365
0
LINE
8
Layer_1
10
107.147882
20
142.342365
11
107.036609
21
142.297865
0
LINE
8
Layer_1
10
107.036609
20
142.297865
11
106.985389
21
142.349065
0
LINE
8
Layer_1
10
104.102883
20
142.349065
11
104.102882
21
142.349365
0
LINE
8
Layer_1
10
118.022631
20
142.588175
11
118.264141
21
142.800124
0
LINE
8
Layer_1
10
118.264141
20
142.800124
11
118.107411
21
142.588175
0
LINE
8
Layer_1
10
118.107411
20
142.588175
11
117.865901
21
142.376225
0
LINE
8
Layer_1
10
117.865901
20
142.376225
11
118.022631
21
142.588175
0
LINE
8
Layer_1
10
106.985389
20
142.349065
11
106.985388
21
142.349365
0
LINE
8
Layer_1
10
71.224293
20
143.849493
11
71.372657
21
143.997853
0
LINE
8
Layer_1
10
71.372657
20
143.997853
11
71.478632
21
144.071823
0
LINE
8
Layer_1
10
71.478632
20
144.071823
11
71.404667
21
143.965853
0
LINE
8
Layer_1
10
71.404667
20
143.965853
11
71.224294
21
143.849503
0
LINE
8
Layer_1
10
71.983766
20
144.686472
11
72.411208
21
145.064442
0
LINE
8
Layer_1
10
72.411208
20
145.064442
11
72.008504
21
144.661732
0
LINE
8
Layer_1
10
71.436242
20
145.682631
11
71.632081
21
145.852191
0
LINE
8
Layer_1
10
71.632081
20
145.852191
11
71.521022
21
145.682631
0
LINE
8
Layer_1
10
71.521022
20
145.682631
11
71.325183
21
145.513071
0
LINE
8
Layer_1
10
71.325183
20
145.513071
11
71.436242
21
145.682631
0
LINE
8
Layer_1
10
72.008504
20
144.661732
11
71.605802
21
144.283772
0
LINE
8
Layer_1
10
71.605802
20
144.283772
11
71.983766
21
144.686472
0
LINE
8
Layer_1
10
119.640139
20
145.816871
11
119.691339
21
145.868070
0
LINE
8
Layer_1
10
119.691339
20
145.868070
11
119.684339
21
145.705571
0
LINE
8
Layer_1
10
119.684339
20
145.705571
11
119.639839
21
145.816850
0
LINE
8
Layer_1
10
114.589056
20
145.936970
11
114.784895
21
146.106530
0
LINE
8
Layer_1
10
114.784895
20
146.106530
11
114.673836
21
145.936970
0
LINE
8
Layer_1
10
114.673836
20
145.936970
11
114.477996
21
145.767410
0
LINE
8
Layer_1
10
114.477996
20
145.767410
11
114.589056
21
145.936970
0
LINE
8
Layer_1
10
119.639839
20
145.816850
11
119.640139
21
145.816871
0
LINE
8
Layer_1
10
115.394465
20
146.657599
11
115.983024
21
147.208669
0
LINE
8
Layer_1
10
115.983024
20
147.208669
11
115.479245
21
146.657599
0
LINE
8
Layer_1
10
115.479245
20
146.657599
11
114.890685
21
146.106530
0
LINE
8
Layer_1
10
114.890685
20
146.106530
11
115.394465
21
146.657599
0
LINE
8
Layer_1
10
119.731609
20
146.276090
11
119.774409
21
146.382070
0
LINE
8
Layer_1
10
119.774409
20
146.382070
11
119.774409
21
146.170120
0
LINE
8
Layer_1
10
119.774409
20
146.170120
11
119.731609
21
146.276090
0
LINE
8
Layer_1
10
119.819509
20
146.996719
11
119.861709
21
147.101079
0
LINE
8
Layer_1
10
119.861709
20
147.101079
11
119.858709
21
146.846739
0
LINE
8
Layer_1
10
119.858709
20
146.846739
11
119.819609
21
146.996719
0
LINE
8
Layer_1
10
115.987904
20
147.325459
11
116.136264
21
147.473818
0
LINE
8
Layer_1
10
116.136264
20
147.473818
11
116.242241
21
147.547788
0
LINE
8
Layer_1
10
116.242241
20
147.547788
11
116.168264
21
147.441818
0
LINE
8
Layer_1
10
116.168264
20
147.441818
11
115.987894
21
147.325469
0
LINE
8
Layer_1
10
135.663459
20
147.512458
11
135.714659
21
147.563658
0
LINE
8
Layer_1
10
135.714659
20
147.563658
11
135.707659
21
147.401168
0
LINE
8
Layer_1
10
135.707659
20
147.401168
11
135.663159
21
147.512438
0
LINE
8
Layer_1
10
135.663159
20
147.512438
11
135.663459
21
147.512458
0
LINE
8
Layer_1
10
118.849210
20
148.354777
11
119.695419
21
147.463008
0
LINE
8
Layer_1
10
119.695419
20
147.463008
11
118.826430
21
148.331997
0
LINE
8
Layer_1
10
118.826430
20
148.331997
11
117.980221
21
149.200986
0
LINE
8
Layer_1
10
117.980221
20
149.200986
11
118.849210
21
148.354777
0
LINE
8
Layer_1
10
99.710218
20
148.173248
11
99.858583
21
148.321617
0
LINE
8
Layer_1
10
99.858583
20
148.321617
11
99.964558
21
148.395580
0
LINE
8
Layer_1
10
99.964558
20
148.395580
11
99.890593
21
148.289617
0
LINE
8
Layer_1
10
99.890593
20
148.289617
11
99.710219
21
148.173258
0
LINE
8
Layer_1
10
101.151472
20
148.173248
11
101.299836
21
148.321617
0
LINE
8
Layer_1
10
101.299836
20
148.321617
11
101.405811
21
148.395580
0
LINE
8
Layer_1
10
101.405811
20
148.395580
11
101.331846
21
148.289617
0
LINE
8
Layer_1
10
101.331846
20
148.289617
11
101.151473
21
148.173258
0
LINE
8
Layer_1
10
100.261286
20
148.819477
11
100.457125
21
148.989037
0
LINE
8
Layer_1
10
100.457125
20
148.989037
11
100.346066
21
148.819477
0
LINE
8
Layer_1
10
100.346066
20
148.819477
11
100.150227
21
148.649917
0
LINE
8
Layer_1
10
100.150227
20
148.649917
11
100.261286
21
148.819477
0
LINE
8
Layer_1
10
126.569451
20
148.877376
11
126.731950
21
148.870377
0
LINE
8
Layer_1
10
126.731950
20
148.870377
11
126.620680
21
148.825877
0
LINE
8
Layer_1
10
126.620680
20
148.825877
11
126.569481
21
148.877077
0
LINE
8
Layer_1
10
128.434608
20
148.877376
11
128.597098
21
148.870377
0
LINE
8
Layer_1
10
128.597098
20
148.870377
11
128.485828
21
148.825877
0
LINE
8
Layer_1
10
128.485828
20
148.825877
11
128.434628
21
148.877077
0
LINE
8
Layer_1
10
126.569481
20
148.877077
11
126.569451
21
148.877376
0
LINE
8
Layer_1
10
125.891221
20
148.962176
11
126.053711
21
148.955177
0
LINE
8
Layer_1
10
126.053711
20
148.955177
11
125.942441
21
148.910677
0
LINE
8
Layer_1
10
125.942441
20
148.910677
11
125.891241
21
148.961877
0
LINE
8
Layer_1
10
128.434628
20
148.877077
11
128.434608
21
148.877376
0
LINE
8
Layer_1
10
102.168827
20
149.370546
11
102.410332
21
149.582496
0
LINE
8
Layer_1
10
102.410332
20
149.582496
11
102.253606
21
149.370546
0
LINE
8
Layer_1
10
102.253606
20
149.370546
11
102.012101
21
149.158596
0
LINE
8
Layer_1
10
102.012101
20
149.158596
11
102.168827
21
149.370546
0
LINE
8
Layer_1
10
125.891241
20
148.961877
11
125.891221
21
148.962176
0
LINE
8
Layer_1
10
117.587902
20
149.476516
11
117.513932
21
149.582493
0
LINE
8
Layer_1
10
117.513932
20
149.582493
11
117.619902
21
149.508516
0
LINE
8
Layer_1
10
117.619902
20
149.508516
11
117.768262
21
149.360156
0
LINE
8
Layer_1
10
117.768262
20
149.360156
11
117.587892
21
149.476506
0
LINE
8
Layer_1
10
101.321051
20
149.964085
11
101.823937
21
150.430375
0
LINE
8
Layer_1
10
101.823937
20
150.430375
11
101.405830
21
149.964085
0
LINE
8
Layer_1
10
101.405830
20
149.964085
11
100.902945
21
149.497796
0
LINE
8
Layer_1
10
100.902945
20
149.497796
11
101.321051
21
149.964085
0
LINE
8
Layer_1
10
117.237012
20
149.593096
11
117.389032
21
149.650996
0
LINE
8
Layer_1
10
117.389032
20
149.650996
11
117.284462
21
149.545646
0
LINE
8
Layer_1
10
117.284462
20
149.545646
11
117.184270
21
149.520721
0
LINE
8
Layer_1
10
117.184270
20
149.520721
11
117.237062
21
149.593146
0
LINE
8
Layer_1
10
102.762304
20
149.964085
11
103.003809
21
150.176035
0
LINE
8
Layer_1
10
103.003809
20
150.176035
11
102.847083
21
149.964085
0
LINE
8
Layer_1
10
102.847083
20
149.964085
11
102.605578
21
149.752136
0
LINE
8
Layer_1
10
102.605578
20
149.752136
11
102.762304
21
149.964085
0
LINE
8
Layer_1
10
131.163475
20
150.038485
11
131.311835
21
150.186845
0
LINE
8
Layer_1
10
131.311835
20
150.186845
11
131.417804
21
150.260815
0
LINE
8
Layer_1
10
131.417804
20
150.260815
11
131.343835
21
150.154845
0
LINE
8
Layer_1
10
131.343835
20
150.154845
11
131.163465
21
150.038495
0
LINE
8
Layer_1
10
103.661222
20
150.698844
11
103.784662
21
150.769544
0
LINE
8
Layer_1
10
103.784662
20
150.769544
11
103.864442
21
150.698844
0
LINE
8
Layer_1
10
103.864442
20
150.698844
11
103.741002
21
150.628144
0
LINE
8
Layer_1
10
103.741002
20
150.628144
11
103.661222
21
150.698844
0
LINE
8
Layer_1
10
85.960048
20
150.742644
11
86.122541
21
150.735644
0
LINE
8
Layer_1
10
86.122541
20
150.735644
11
86.011269
21
150.691144
0
LINE
8
Layer_1
10
86.011269
20
150.691144
11
85.960049
21
150.742344
0
LINE
8
Layer_1
10
131.968874
20
150.854284
11
132.164713
21
151.023844
0
LINE
8
Layer_1
10
132.164713
20
151.023844
11
132.053654
21
150.854284
0
LINE
8
Layer_1
10
132.053654
20
150.854284
11
131.857814
21
150.684734
0
LINE
8
Layer_1
10
131.857814
20
150.684734
11
131.968874
21
150.854284
0
LINE
8
Layer_1
10
85.960049
20
150.742344
11
85.960048
21
150.742644
0
LINE
8
Layer_1
10
86.468725
20
150.827384
11
86.631219
21
150.820384
0
LINE
8
Layer_1
10
86.631219
20
150.820384
11
86.519946
21
150.775884
0
LINE
8
Layer_1
10
86.519946
20
150.775884
11
86.468726
21
150.827084
0
LINE
8
Layer_1
10
87.655640
20
150.996944
11
87.818133
21
150.989944
0
LINE
8
Layer_1
10
87.818133
20
150.989944
11
87.706860
21
150.945444
0
LINE
8
Layer_1
10
87.706860
20
150.945444
11
87.655641
21
150.996644
0
LINE
8
Layer_1
10
86.468726
20
150.827084
11
86.468725
21
150.827384
0
LINE
8
Layer_1
10
102.592745
20
151.150974
11
102.834250
21
151.362923
0
LINE
8
Layer_1
10
102.834250
20
151.362923
11
102.677525
21
151.150974
0
LINE
8
Layer_1
10
102.677525
20
151.150974
11
102.436019
21
150.939024
0
LINE
8
Layer_1
10
102.436019
20
150.939024
11
102.592745
21
151.150974
0
LINE
8
Layer_1
10
87.655641
20
150.996644
11
87.655640
21
150.996944
0
LINE
8
Layer_1
10
88.333876
20
151.081774
11
88.496371
21
151.074774
0
LINE
8
Layer_1
10
88.496371
20
151.074774
11
88.385097
21
151.030274
0
LINE
8
Layer_1
10
88.385097
20
151.030274
11
88.333877
21
151.081474
0
LINE
8
Layer_1
10
89.176374
20
151.164774
11
89.388323
21
151.164774
0
LINE
8
Layer_1
10
89.388323
20
151.164774
11
89.282347
21
151.121974
0
LINE
8
Layer_1
10
89.282347
20
151.121974
11
89.176374
21
151.164774
0
LINE
8
Layer_1
10
88.333877
20
151.081474
11
88.333876
21
151.081774
0
LINE
8
Layer_1
10
83.432556
20
151.341004
11
84.733578
21
153.906892
0
LINE
8
Layer_1
10
84.733578
20
153.906892
11
86.174962
21
156.409967
0
LINE
8
Layer_1
10
86.174962
20
156.409967
11
88.509506
21
156.534527
0
LINE
8
Layer_1
10
91.137904
20
156.004648
11
92.987817
21
154.265270
0
LINE
8
Layer_1
10
92.987817
20
154.265270
11
94.697715
21
153.565655
0
LINE
8
Layer_1
10
94.697715
20
153.565655
11
97.251631
21
153.143231
0
LINE
8
Layer_1
10
97.251631
20
153.143231
11
98.692884
21
152.984941
0
LINE
8
Layer_1
10
98.692884
20
152.984941
11
99.059109
21
152.890797
0
LINE
8
Layer_1
10
99.059109
20
152.890797
11
98.801887
21
152.808690
0
LINE
8
Layer_1
10
98.801887
20
152.808690
11
96.488613
21
152.690152
0
LINE
8
Layer_1
10
96.488613
20
152.690152
11
92.758311
21
152.463752
0
LINE
8
Layer_1
10
92.758311
20
152.463752
11
88.943229
21
152.078613
0
LINE
8
Layer_1
10
88.943229
20
152.078613
11
86.026375
21
151.764985
0
LINE
8
Layer_1
10
86.026375
20
151.764985
11
84.207927
21
151.412913
0
LINE
8
Layer_1
10
84.207927
20
151.412913
11
83.576573
21
151.275987
0
LINE
8
Layer_1
10
83.576573
20
151.275987
11
83.432556
21
151.341014
0
LINE
8
Layer_1
10
88.509506
20
156.534527
11
90.666220
21
156.534527
0
LINE
8
Layer_1
10
90.666220
20
156.534527
11
91.137904
21
156.004648
0
LINE
8
Layer_1
10
90.193728
20
151.249504
11
90.405677
21
151.249504
0
LINE
8
Layer_1
10
90.405677
20
151.249504
11
90.299703
21
151.206704
0
LINE
8
Layer_1
10
90.299703
20
151.206704
11
90.193728
21
151.249504
0
LINE
8
Layer_1
10
91.126304
20
151.334303
11
91.338253
21
151.334303
0
LINE
8
Layer_1
10
91.338253
20
151.334303
11
91.232279
21
151.291503
0
LINE
8
Layer_1
10
91.232279
20
151.291503
11
91.126304
21
151.334303
0
LINE
8
Layer_1
10
92.148958
20
151.420903
11
92.311453
21
151.413904
0
LINE
8
Layer_1
10
92.311453
20
151.413904
11
92.200179
21
151.369404
0
LINE
8
Layer_1
10
92.200179
20
151.369404
11
92.148959
21
151.420603
0
LINE
8
Layer_1
10
92.991455
20
151.503903
11
93.203405
21
151.503903
0
LINE
8
Layer_1
10
93.203405
20
151.503903
11
93.097430
21
151.461103
0
LINE
8
Layer_1
10
93.097430
20
151.461103
11
92.991455
21
151.503903
0
LINE
8
Layer_1
10
92.148959
20
151.420603
11
92.148958
21
151.420903
0
LINE
8
Layer_1
10
93.839252
20
151.588703
11
94.051200
21
151.588703
0
LINE
8
Layer_1
10
94.051200
20
151.588703
11
93.945226
21
151.545903
0
LINE
8
Layer_1
10
93.945226
20
151.545903
11
93.839252
21
151.588703
0
LINE
8
Layer_1
10
94.857594
20
151.677303
11
95.196713
21
151.675303
0
LINE
8
Layer_1
10
95.196713
20
151.675303
11
95.004970
21
151.638403
0
LINE
8
Layer_1
10
95.004970
20
151.638403
11
94.821793
21
151.650443
0
LINE
8
Layer_1
10
94.821793
20
151.650443
11
94.857594
21
151.677003
0
LINE
8
Layer_1
10
103.186202
20
151.649303
11
103.334567
21
151.797673
0
LINE
8
Layer_1
10
103.334567
20
151.797673
11
103.440541
21
151.871635
0
LINE
8
Layer_1
10
103.440541
20
151.871635
11
103.366577
21
151.765673
0
LINE
8
Layer_1
10
103.366577
20
151.765673
11
103.186203
21
151.649313
0
LINE
8
Layer_1
10
94.857594
20
151.677003
11
94.857594
21
151.677303
0
LINE
8
Layer_1
10
97.655322
20
151.762033
11
97.994440
21
151.760033
0
LINE
8
Layer_1
10
97.994440
20
151.760033
11
97.802698
21
151.723133
0
LINE
8
Layer_1
10
97.802698
20
151.723133
11
97.619519
21
151.735173
0
LINE
8
Layer_1
10
97.619519
20
151.735173
11
97.655322
21
151.761733
0
LINE
8
Layer_1
10
98.756468
20
151.843033
11
98.968417
21
151.843033
0
LINE
8
Layer_1
10
98.968417
20
151.843033
11
98.862443
21
151.800233
0
LINE
8
Layer_1
10
98.862443
20
151.800233
11
98.756468
21
151.843033
0
LINE
8
Layer_1
10
97.655322
20
151.761733
11
97.655322
21
151.762033
0
LINE
8
Layer_1
10
99.604265
20
151.927833
11
99.816213
21
151.927833
0
LINE
8
Layer_1
10
99.816213
20
151.927833
11
99.710238
21
151.885033
0
LINE
8
Layer_1
10
99.710238
20
151.885033
11
99.604265
21
151.927833
0
LINE
8
Layer_1
10
100.536839
20
152.012633
11
100.748789
21
152.012633
0
LINE
8
Layer_1
10
100.748789
20
152.012633
11
100.642814
21
151.969833
0
LINE
8
Layer_1
10
100.642814
20
151.969833
11
100.536839
21
152.012633
0
LINE
8
Layer_1
10
101.384635
20
152.097433
11
101.596585
21
152.097433
0
LINE
8
Layer_1
10
101.596585
20
152.097433
11
101.490610
21
152.054633
0
LINE
8
Layer_1
10
101.490610
20
152.054633
11
101.384635
21
152.097433
0
LINE
8
Layer_1
10
102.322510
20
152.183932
11
102.485004
21
152.176932
0
LINE
8
Layer_1
10
102.485004
20
152.176932
11
102.373731
21
152.132432
0
LINE
8
Layer_1
10
102.373731
20
152.132432
11
102.322511
21
152.183632
0
LINE
8
Layer_1
10
103.293790
20
152.269532
11
103.548129
21
152.266532
0
LINE
8
Layer_1
10
103.548129
20
152.266532
11
103.398151
21
152.227433
0
LINE
8
Layer_1
10
103.398151
20
152.227433
11
103.293790
21
152.269632
0
LINE
8
Layer_1
10
102.322511
20
152.183632
11
102.322510
21
152.183932
0
LINE
8
Layer_1
10
134.222231
20
153.447151
11
134.273431
21
153.498351
0
LINE
8
Layer_1
10
134.273431
20
153.498351
11
134.266431
21
153.335861
0
LINE
8
Layer_1
10
134.266431
20
153.335861
11
134.221931
21
153.447131
0
LINE
8
Layer_1
10
103.293790
20
152.269632
11
103.293790
21
152.269532
0
LINE
8
Layer_1
10
99.842294
20
153.559351
11
99.964460
21
153.591851
0
LINE
8
Layer_1
10
99.964460
20
153.591851
11
100.128252
21
153.517741
0
LINE
8
Layer_1
10
100.128252
20
153.517741
11
100.011970
21
153.482481
0
LINE
8
Layer_1
10
100.011970
20
153.482481
11
99.842293
21
153.559381
0
LINE
8
Layer_1
10
134.221931
20
153.447131
11
134.222231
21
153.447151
0
LINE
8
Layer_1
10
98.171251
20
154.030350
11
96.997292
21
154.153330
0
LINE
8
Layer_1
10
96.997292
20
154.153330
11
95.521348
21
154.333968
0
LINE
8
Layer_1
10
95.521348
20
154.333968
11
94.418292
21
154.628093
0
LINE
8
Layer_1
10
94.418292
20
154.628093
11
93.538665
21
155.092916
0
LINE
8
Layer_1
10
93.538665
20
155.092916
11
92.733010
21
155.785648
0
LINE
8
Layer_1
10
92.733010
20
155.785648
11
92.123362
21
156.535997
0
LINE
8
Layer_1
10
92.123362
20
156.535997
11
95.046308
21
156.619297
0
LINE
8
Layer_1
10
95.046308
20
156.619297
11
97.414904
21
156.596251
0
LINE
8
Layer_1
10
97.414904
20
156.596251
11
98.043625
21
156.493427
0
LINE
8
Layer_1
10
98.043625
20
156.493427
11
98.230460
21
155.709218
0
LINE
8
Layer_1
10
98.230460
20
155.709218
11
98.406457
21
154.669369
0
LINE
8
Layer_1
10
98.406457
20
154.669369
11
98.513819
21
154.155016
0
LINE
8
Layer_1
10
98.513819
20
154.155016
11
98.362007
21
154.015070
0
LINE
8
Layer_1
10
98.362007
20
154.015070
11
98.171253
21
154.030370
0
LINE
8
Layer_1
10
111.224368
20
154.303410
11
111.386862
21
154.296410
0
LINE
8
Layer_1
10
111.386862
20
154.296410
11
111.275589
21
154.251910
0
LINE
8
Layer_1
10
111.275589
20
154.251910
11
111.224369
21
154.303110
0
LINE
8
Layer_1
10
123.257775
20
154.305410
11
123.639284
21
154.305410
0
LINE
8
Layer_1
10
123.639284
20
154.305410
11
123.661943
21
154.279485
0
LINE
8
Layer_1
10
123.661943
20
154.279485
11
123.448524
21
154.268710
0
LINE
8
Layer_1
10
123.448524
20
154.268710
11
123.235118
21
154.279485
0
LINE
8
Layer_1
10
123.235118
20
154.279485
11
123.257775
21
154.305410
0
LINE
8
Layer_1
10
111.224369
20
154.303110
11
111.224368
21
154.303410
0
LINE
8
Layer_1
10
133.307212
20
154.627089
11
133.318436
21
154.857642
0
LINE
8
Layer_1
10
133.318436
20
154.857642
11
133.343812
21
154.816679
0
LINE
8
Layer_1
10
133.343812
20
154.816679
11
133.342812
21
154.392780
0
LINE
8
Layer_1
10
133.342812
20
154.392780
11
133.317312
21
154.383342
0
LINE
8
Layer_1
10
133.317312
20
154.383342
11
133.307412
21
154.627089
0
LINE
8
Layer_1
10
100.642814
20
154.362370
11
100.791178
21
154.510740
0
LINE
8
Layer_1
10
100.791178
20
154.510740
11
100.897153
21
154.584702
0
LINE
8
Layer_1
10
100.897153
20
154.584702
11
100.823188
21
154.478740
0
LINE
8
Layer_1
10
100.823188
20
154.478740
11
100.642815
21
154.362380
0
LINE
8
Layer_1
10
133.307412
20
154.627089
11
133.307212
21
154.627089
0
LINE
8
Layer_1
10
112.110869
20
154.389070
11
112.365207
21
154.386070
0
LINE
8
Layer_1
10
112.365207
20
154.386070
11
112.215230
21
154.346970
0
LINE
8
Layer_1
10
112.215230
20
154.346970
11
112.110869
21
154.389170
0
LINE
8
Layer_1
10
119.825369
20
154.391070
11
120.249258
21
154.390070
0
LINE
8
Layer_1
10
120.249258
20
154.390070
11
120.258700
21
154.364570
0
LINE
8
Layer_1
10
120.258700
20
154.364570
11
120.014949
21
154.354670
0
LINE
8
Layer_1
10
120.014949
20
154.354670
11
119.784402
21
154.365897
0
LINE
8
Layer_1
10
119.784402
20
154.365897
11
119.825369
21
154.391270
0
LINE
8
Layer_1
10
112.110869
20
154.389170
11
112.110869
21
154.389070
0
LINE
8
Layer_1
10
126.267451
20
154.389070
11
126.564181
21
154.389070
0
LINE
8
Layer_1
10
126.564181
20
154.389070
11
126.415811
21
154.350270
0
LINE
8
Layer_1
10
126.415811
20
154.350270
11
126.267451
21
154.389070
0
LINE
8
Layer_1
10
119.825369
20
154.391270
11
119.825369
21
154.391070
0
LINE
8
Layer_1
10
113.339547
20
154.475370
11
113.678666
21
154.473370
0
LINE
8
Layer_1
10
113.678666
20
154.473370
11
113.486923
21
154.436470
0
LINE
8
Layer_1
10
113.486923
20
154.436470
11
113.303745
21
154.448510
0
LINE
8
Layer_1
10
113.303745
20
154.448510
11
113.339547
21
154.475070
0
LINE
8
Layer_1
10
117.663842
20
154.476369
11
118.172511
21
154.475510
0
LINE
8
Layer_1
10
118.172511
20
154.475510
11
118.186780
21
154.450935
0
LINE
8
Layer_1
10
118.186780
20
154.450935
11
117.895461
21
154.441210
0
LINE
8
Layer_1
10
117.895461
20
154.441210
11
117.617596
21
154.451902
0
LINE
8
Layer_1
10
117.617596
20
154.451902
11
117.663842
21
154.476409
0
LINE
8
Layer_1
10
113.339547
20
154.475070
11
113.339547
21
154.475370
0
LINE
8
Layer_1
10
127.417269
20
154.472370
11
127.579769
21
154.465369
0
LINE
8
Layer_1
10
127.579769
20
154.465369
11
127.468490
21
154.420870
0
LINE
8
Layer_1
10
127.468490
20
154.420870
11
127.417290
21
154.472069
0
LINE
8
Layer_1
10
128.095509
20
154.557169
11
128.257998
21
154.550169
0
LINE
8
Layer_1
10
128.257998
20
154.550169
11
128.146728
21
154.505669
0
LINE
8
Layer_1
10
128.146728
20
154.505669
11
128.095529
21
154.556869
0
LINE
8
Layer_1
10
127.417290
20
154.472069
11
127.417269
21
154.472370
0
LINE
8
Layer_1
10
128.688968
20
154.641969
11
128.851458
21
154.634969
0
LINE
8
Layer_1
10
128.851458
20
154.634969
11
128.740188
21
154.590469
0
LINE
8
Layer_1
10
128.740188
20
154.590469
11
128.688988
21
154.641669
0
LINE
8
Layer_1
10
128.095529
20
154.556869
11
128.095509
21
154.557169
0
LINE
8
Layer_1
10
101.151492
20
154.966079
11
101.392997
21
155.178029
0
LINE
8
Layer_1
10
101.392997
20
155.178029
11
101.236271
21
154.966079
0
LINE
8
Layer_1
10
101.236271
20
154.966079
11
100.994766
21
154.754129
0
LINE
8
Layer_1
10
100.994766
20
154.754129
11
101.151492
21
154.966079
0
LINE
8
Layer_1
10
128.688988
20
154.641669
11
128.688968
21
154.641969
0
LINE
8
Layer_1
10
109.502282
20
155.347588
11
109.698121
21
155.517148
0
LINE
8
Layer_1
10
109.698121
20
155.517148
11
109.587062
21
155.347588
0
LINE
8
Layer_1
10
109.587062
20
155.347588
11
109.391223
21
155.178029
0
LINE
8
Layer_1
10
109.391223
20
155.178029
11
109.502282
21
155.347588
0
LINE
8
Layer_1
10
110.630911
20
155.235939
11
110.793404
21
155.228939
0
LINE
8
Layer_1
10
110.793404
20
155.228939
11
110.682132
21
155.184439
0
LINE
8
Layer_1
10
110.682132
20
155.184439
11
110.630912
21
155.235639
0
LINE
8
Layer_1
10
111.224368
20
155.320739
11
111.386862
21
155.313738
0
LINE
8
Layer_1
10
111.386862
20
155.313738
11
111.275589
21
155.269238
0
LINE
8
Layer_1
10
111.275589
20
155.269238
11
111.224369
21
155.320438
0
LINE
8
Layer_1
10
110.630912
20
155.235639
11
110.630911
21
155.235939
0
LINE
8
Layer_1
10
122.961045
20
155.325739
11
124.105564
21
155.325739
0
LINE
8
Layer_1
10
124.105564
20
155.325739
11
124.237451
21
155.314221
0
LINE
8
Layer_1
10
124.237451
20
155.314221
11
124.173512
21
155.304776
0
LINE
8
Layer_1
10
124.173512
20
155.304776
11
123.533304
21
155.296039
0
LINE
8
Layer_1
10
123.533304
20
155.296039
11
122.893085
21
155.304776
0
LINE
8
Layer_1
10
122.893085
20
155.304776
11
122.829154
21
155.314221
0
LINE
8
Layer_1
10
122.829154
20
155.314221
11
122.961045
21
155.325739
0
LINE
8
Layer_1
10
111.224369
20
155.320438
11
111.224368
21
155.320739
0
LINE
8
Layer_1
10
112.110869
20
155.406438
11
112.365207
21
155.403438
0
LINE
8
Layer_1
10
112.365207
20
155.403438
11
112.215230
21
155.364338
0
LINE
8
Layer_1
10
112.215230
20
155.364338
11
112.110869
21
155.406538
0
LINE
8
Layer_1
10
119.018790
20
155.409438
11
119.739419
21
155.409438
0
LINE
8
Layer_1
10
119.739419
20
155.409438
11
119.782194
21
155.386476
0
LINE
8
Layer_1
10
119.782194
20
155.386476
11
119.379110
21
155.376938
0
LINE
8
Layer_1
10
119.379110
20
155.376938
11
118.976005
21
155.386476
0
LINE
8
Layer_1
10
118.976005
20
155.386476
11
119.018790
21
155.409438
0
LINE
8
Layer_1
10
112.110869
20
155.406538
11
112.110869
21
155.406438
0
LINE
8
Layer_1
10
126.184281
20
155.406438
11
126.438621
21
155.403438
0
LINE
8
Layer_1
10
126.438621
20
155.403438
11
126.288641
21
155.364338
0
LINE
8
Layer_1
10
126.288641
20
155.364338
11
126.184281
21
155.406538
0
LINE
8
Layer_1
10
114.693145
20
155.493638
11
115.286595
21
155.494318
0
LINE
8
Layer_1
10
115.286595
20
155.494318
11
115.338152
21
155.470556
0
LINE
8
Layer_1
10
115.338152
20
155.470556
11
115.012955
21
155.460218
0
LINE
8
Layer_1
10
115.012955
20
155.460218
11
114.674209
21
155.469726
0
LINE
8
Layer_1
10
114.674209
20
155.469726
11
114.693145
21
155.493618
0
LINE
8
Layer_1
10
126.184281
20
155.406538
11
126.184281
21
155.406438
0
LINE
8
Layer_1
10
127.157630
20
155.488638
11
127.369580
21
155.488638
0
LINE
8
Layer_1
10
127.369580
20
155.488638
11
127.263610
21
155.445838
0
LINE
8
Layer_1
10
127.263610
20
155.445838
11
127.157630
21
155.488638
0
LINE
8
Layer_1
10
127.925949
20
155.575138
11
128.088439
21
155.568138
0
LINE
8
Layer_1
10
128.088439
20
155.568138
11
127.977169
21
155.523638
0
LINE
8
Layer_1
10
127.977169
20
155.523638
11
127.925969
21
155.574838
0
LINE
8
Layer_1
10
99.142187
20
156.025907
11
99.152561
21
156.286736
0
LINE
8
Layer_1
10
99.152561
20
156.286736
11
99.177507
21
156.259047
0
LINE
8
Layer_1
10
99.177507
20
156.259047
11
99.177507
21
155.792758
0
LINE
8
Layer_1
10
99.177507
20
155.792758
11
99.152565
21
155.765078
0
LINE
8
Layer_1
10
99.152565
20
155.765078
11
99.142187
21
156.025907
0
LINE
8
Layer_1
10
127.925969
20
155.574838
11
127.925949
21
155.575138
0
LINE
8
Layer_1
10
129.028088
20
155.744698
11
129.190577
21
155.737698
0
LINE
8
Layer_1
10
129.190577
20
155.737698
11
129.079307
21
155.693198
0
LINE
8
Layer_1
10
129.079307
20
155.693198
11
129.028107
21
155.744398
0
LINE
8
Layer_1
10
134.222231
20
155.820998
11
134.273431
21
155.872198
0
LINE
8
Layer_1
10
134.273431
20
155.872198
11
134.266431
21
155.709708
0
LINE
8
Layer_1
10
134.266431
20
155.709708
11
134.221931
21
155.820978
0
LINE
8
Layer_1
10
129.028107
20
155.744398
11
129.028088
21
155.744698
0
LINE
8
Layer_1
10
109.968570
20
155.888298
11
110.116934
21
156.036658
0
LINE
8
Layer_1
10
110.116934
20
156.036658
11
110.222909
21
156.110627
0
LINE
8
Layer_1
10
110.222909
20
156.110627
11
110.148944
21
156.004658
0
LINE
8
Layer_1
10
110.148944
20
156.004658
11
109.968571
21
155.888308
0
LINE
8
Layer_1
10
134.221931
20
155.820978
11
134.222231
21
155.820998
0
LINE
8
Layer_1
10
110.731586
20
156.746467
11
111.061577
21
157.043196
0
LINE
8
Layer_1
10
111.061577
20
157.043196
11
110.816366
21
156.746467
0
LINE
8
Layer_1
10
110.816366
20
156.746467
11
110.486376
21
156.449747
0
LINE
8
Layer_1
10
110.486376
20
156.449747
11
110.731586
21
156.746467
0
LINE
8
Layer_1
10
103.949218
20
156.825267
11
104.118778
21
156.958396
0
LINE
8
Layer_1
10
104.118778
20
156.958396
11
104.288337
21
157.006796
0
LINE
8
Layer_1
10
104.288337
20
157.006796
11
104.118778
21
156.873657
0
LINE
8
Layer_1
10
104.118778
20
156.873657
11
103.949218
21
156.825357
0
LINE
8
Layer_1
10
85.951740
20
157.912175
11
81.197934
21
166.343395
0
LINE
8
Layer_1
10
81.197934
20
166.343395
11
81.102993
21
166.528200
0
LINE
8
Layer_1
10
81.102993
20
166.528200
11
81.278912
21
166.997944
0
LINE
8
Layer_1
10
81.278912
20
166.997944
11
83.690074
21
171.243758
0
LINE
8
Layer_1
10
83.690074
20
171.243758
11
86.130751
21
175.346773
0
LINE
8
Layer_1
10
91.380148
20
175.487813
11
96.534900
21
175.384743
0
LINE
8
Layer_1
10
96.534900
20
175.384743
11
99.110958
21
171.018614
0
LINE
8
Layer_1
10
99.110958
20
171.018614
11
101.575390
21
166.542324
0
LINE
8
Layer_1
10
101.575390
20
166.542324
11
101.310537
21
165.927585
0
LINE
8
Layer_1
10
101.310537
20
165.927585
11
100.451520
21
164.376627
0
LINE
8
Layer_1
10
100.451520
20
164.376627
11
99.508264
21
162.983239
0
LINE
8
Layer_1
10
99.508264
20
162.983239
11
98.705981
21
162.234860
0
LINE
8
Layer_1
10
86.130751
20
175.346773
11
86.332139
21
175.549913
0
LINE
8
Layer_1
10
86.332139
20
175.549913
11
91.380148
21
175.487813
0
LINE
8
Layer_1
10
97.773405
20
161.968930
11
95.380605
21
163.097012
0
LINE
8
Layer_1
10
95.380605
20
163.097012
11
93.416098
21
164.389637
0
LINE
8
Layer_1
10
93.416098
20
164.389637
11
91.832528
21
165.527983
0
LINE
8
Layer_1
10
91.832528
20
165.527983
11
90.580880
21
166.237495
0
LINE
8
Layer_1
10
90.580880
20
166.237495
11
89.267497
21
166.603789
0
LINE
8
Layer_1
10
89.267497
20
166.603789
11
87.971472
21
166.680374
0
LINE
8
Layer_1
10
87.971472
20
166.680374
11
86.430967
21
166.406722
0
LINE
8
Layer_1
10
86.430967
20
166.406722
11
85.444108
21
166.014075
0
LINE
8
Layer_1
10
85.444108
20
166.014075
11
85.342532
21
165.707249
0
LINE
8
Layer_1
10
85.342532
20
165.707249
11
85.477748
21
165.397266
0
LINE
8
Layer_1
10
85.477748
20
165.397266
11
85.983805
21
165.336821
0
LINE
8
Layer_1
10
85.983805
20
165.336821
11
87.112780
21
165.515116
0
LINE
8
Layer_1
10
87.112780
20
165.515116
11
88.309924
21
165.681746
0
LINE
8
Layer_1
10
88.309924
20
165.681746
11
89.334801
21
165.601212
0
LINE
8
Layer_1
10
89.334801
20
165.601212
11
90.342128
21
165.239872
0
LINE
8
Layer_1
10
90.342128
20
165.239872
11
91.486620
21
164.564087
0
LINE
8
Layer_1
10
91.486620
20
164.564087
11
92.675964
21
163.697368
0
LINE
8
Layer_1
10
92.675964
20
163.697368
11
94.844580
21
162.251030
0
LINE
8
Layer_1
10
94.844580
20
162.251030
11
97.106037
21
161.153021
0
LINE
8
Layer_1
10
97.106037
20
161.153021
11
97.550564
21
160.939481
0
LINE
8
Layer_1
10
97.550564
20
160.939481
11
97.369746
21
160.396022
0
LINE
8
Layer_1
10
97.369746
20
160.396022
11
97.106065
21
159.393023
0
LINE
8
Layer_1
10
97.106065
20
159.393023
11
97.208286
21
158.349105
0
LINE
8
Layer_1
10
97.208286
20
158.349105
11
97.283845
21
157.723505
0
LINE
8
Layer_1
10
97.283845
20
157.723505
11
94.168252
21
157.623465
0
LINE
8
Layer_1
10
98.705981
20
162.234860
11
98.252789
21
161.777730
0
LINE
8
Layer_1
10
98.252789
20
161.777730
11
97.773405
21
161.968930
0
LINE
8
Layer_1
10
90.823992
20
157.975775
11
89.709585
21
159.162225
0
LINE
8
Layer_1
10
89.709585
20
159.162225
11
88.707638
21
159.958593
0
LINE
8
Layer_1
10
88.707638
20
159.958593
11
86.812783
21
160.491565
0
LINE
8
Layer_1
10
86.812783
20
160.491565
11
85.228239
21
160.612142
0
LINE
8
Layer_1
10
85.228239
20
160.612142
11
85.023186
21
160.340563
0
LINE
8
Layer_1
10
85.023186
20
160.340563
11
85.114808
21
160.006413
0
LINE
8
Layer_1
10
85.114808
20
160.006413
11
85.570007
21
159.778850
0
LINE
8
Layer_1
10
85.570007
20
159.778850
11
87.070064
21
159.459143
0
LINE
8
Layer_1
10
87.070064
20
159.459143
11
88.214589
21
159.103184
0
LINE
8
Layer_1
10
88.214589
20
159.103184
11
89.134369
21
158.380862
0
LINE
8
Layer_1
10
89.134369
20
158.380862
11
89.706245
21
157.678325
0
LINE
8
Layer_1
10
89.706245
20
157.678325
11
89.387979
21
157.574582
0
LINE
8
Layer_1
10
89.387979
20
157.574582
11
87.933929
21
157.551876
0
LINE
8
Layer_1
10
94.168252
20
157.623465
11
91.127264
21
157.594266
0
LINE
8
Layer_1
10
91.127264
20
157.594266
11
90.823992
21
157.975775
0
LINE
8
Layer_1
10
111.748941
20
157.848575
11
111.990447
21
158.060525
0
LINE
8
Layer_1
10
111.990447
20
158.060525
11
111.833721
21
157.848575
0
LINE
8
Layer_1
10
111.833721
20
157.848575
11
111.592215
21
157.636626
0
LINE
8
Layer_1
10
111.592215
20
157.636626
11
111.748941
21
157.848575
0
LINE
8
Layer_1
10
87.933929
20
157.551876
11
86.161613
21
157.551876
0
LINE
8
Layer_1
10
86.161613
20
157.551876
11
85.951740
21
157.912175
0
LINE
8
Layer_1
10
99.795018
20
158.007755
11
99.943382
21
158.156115
0
LINE
8
Layer_1
10
99.943382
20
158.156115
11
100.049357
21
158.230085
0
LINE
8
Layer_1
10
100.049357
20
158.230085
11
99.975392
21
158.124115
0
LINE
8
Layer_1
10
99.975392
20
158.124115
11
99.795019
21
158.007765
0
LINE
8
Layer_1
10
137.309987
20
158.653984
11
137.683517
21
158.993104
0
LINE
8
Layer_1
10
137.683517
20
158.993104
11
137.394767
21
158.653984
0
LINE
8
Layer_1
10
137.394767
20
158.653984
11
137.021237
21
158.314865
0
LINE
8
Layer_1
10
137.021237
20
158.314865
11
137.309987
21
158.653984
0
LINE
8
Layer_1
10
112.469568
20
158.653984
11
112.665407
21
158.823544
0
LINE
8
Layer_1
10
112.665407
20
158.823544
11
112.554348
21
158.653984
0
LINE
8
Layer_1
10
112.554348
20
158.653984
11
112.358509
21
158.484425
0
LINE
8
Layer_1
10
112.358509
20
158.484425
11
112.469568
21
158.653984
0
LINE
8
Layer_1
10
108.251784
20
158.625384
11
108.463732
21
158.625384
0
LINE
8
Layer_1
10
108.463732
20
158.625384
11
108.357758
21
158.582584
0
LINE
8
Layer_1
10
108.357758
20
158.582584
11
108.251784
21
158.625384
0
LINE
8
Layer_1
10
109.947375
20
158.625384
11
110.159324
21
158.625384
0
LINE
8
Layer_1
10
110.159324
20
158.625384
11
110.053349
21
158.582584
0
LINE
8
Layer_1
10
110.053349
20
158.582584
11
109.947375
21
158.625384
0
LINE
8
Layer_1
10
100.854763
20
159.077914
11
101.050602
21
159.247474
0
LINE
8
Layer_1
10
101.050602
20
159.247474
11
100.939543
21
159.077914
0
LINE
8
Layer_1
10
100.939543
20
159.077914
11
100.743704
21
158.908354
0
LINE
8
Layer_1
10
100.743704
20
158.908354
11
100.854763
21
159.077914
0
LINE
8
Layer_1
10
113.105416
20
159.374644
11
113.346921
21
159.586583
0
LINE
8
Layer_1
10
113.346921
20
159.586583
11
113.190194
21
159.374644
0
LINE
8
Layer_1
10
113.190194
20
159.374644
11
112.948690
21
159.162694
0
LINE
8
Layer_1
10
112.948690
20
159.162694
11
113.105416
21
159.374644
0
LINE
8
Layer_1
10
136.589368
20
159.459443
11
136.830868
21
159.671393
0
LINE
8
Layer_1
10
136.830868
20
159.671393
11
136.674148
21
159.459443
0
LINE
8
Layer_1
10
136.674148
20
159.459443
11
136.432638
21
159.247503
0
LINE
8
Layer_1
10
136.432638
20
159.247503
11
136.589368
21
159.459443
0
LINE
8
Layer_1
10
137.861056
20
159.279503
11
138.009426
21
159.427873
0
LINE
8
Layer_1
10
138.009426
20
159.427873
11
138.115396
21
159.501839
0
LINE
8
Layer_1
10
138.115396
20
159.501839
11
138.041426
21
159.395873
0
LINE
8
Layer_1
10
138.041426
20
159.395873
11
137.861046
21
159.279513
0
LINE
8
Layer_1
10
111.115590
20
159.812073
11
110.114568
21
161.064931
0
LINE
8
Layer_1
10
110.114568
20
161.064931
11
109.422581
21
161.854854
0
LINE
8
Layer_1
10
109.422581
20
161.854854
11
108.935937
21
162.722259
0
LINE
8
Layer_1
10
108.935937
20
162.722259
11
108.473096
21
163.555884
0
LINE
8
Layer_1
10
108.473096
20
163.555884
11
107.902248
21
164.210447
0
LINE
8
Layer_1
10
107.902248
20
164.210447
11
107.071470
21
164.894564
0
LINE
8
Layer_1
10
107.071470
20
164.894564
11
106.311033
21
165.160526
0
LINE
8
Layer_1
10
106.311033
20
165.160526
11
106.034314
21
165.239130
0
LINE
8
Layer_1
10
106.034314
20
165.239130
11
105.983928
21
165.473756
0
LINE
8
Layer_1
10
105.983928
20
165.473756
11
106.015757
21
165.811376
0
LINE
8
Layer_1
10
106.015757
20
165.811376
11
106.365559
21
165.968606
0
LINE
8
Layer_1
10
106.365559
20
165.968606
11
109.544985
21
165.942935
0
LINE
8
Layer_1
10
109.544985
20
165.942935
11
113.071215
21
165.735565
0
LINE
8
Layer_1
10
113.071215
20
165.735565
11
113.387189
21
165.259040
0
LINE
8
Layer_1
10
113.387189
20
165.259040
11
113.373508
21
164.267497
0
LINE
8
Layer_1
10
113.373508
20
164.267497
11
112.914204
21
162.169519
0
LINE
8
Layer_1
10
112.914204
20
162.169519
11
112.020854
21
160.010513
0
LINE
8
Layer_1
10
112.020854
20
160.010513
11
111.538870
21
159.356350
0
LINE
8
Layer_1
10
111.538870
20
159.356350
11
111.342012
21
159.450324
0
LINE
8
Layer_1
10
111.342012
20
159.450324
11
111.115590
21
159.812073
0
LINE
8
Layer_1
10
113.741262
20
160.095292
11
113.937101
21
160.264852
0
LINE
8
Layer_1
10
113.937101
20
160.264852
11
113.826042
21
160.095292
0
LINE
8
Layer_1
10
113.826042
20
160.095292
11
113.630203
21
159.925733
0
LINE
8
Layer_1
10
113.630203
20
159.925733
11
113.741262
21
160.095292
0
LINE
8
Layer_1
10
109.311528
20
160.608532
11
109.603693
21
160.264852
0
LINE
8
Layer_1
10
109.603693
20
160.264852
11
109.285769
21
160.582782
0
LINE
8
Layer_1
10
109.285769
20
160.582782
11
108.993605
21
160.900701
0
LINE
8
Layer_1
10
108.993605
20
160.900701
11
109.311528
21
160.608532
0
LINE
8
Layer_1
10
114.249936
20
160.688752
11
114.445776
21
160.858311
0
LINE
8
Layer_1
10
114.445776
20
160.858311
11
114.334716
21
160.688752
0
LINE
8
Layer_1
10
114.334716
20
160.688752
11
114.138880
21
160.519192
0
LINE
8
Layer_1
10
114.138880
20
160.519192
11
114.249936
21
160.688752
0
LINE
8
Layer_1
10
114.758615
20
161.282211
11
114.954455
21
161.451771
0
LINE
8
Layer_1
10
114.954455
20
161.451771
11
114.843395
21
161.282211
0
LINE
8
Layer_1
10
114.843395
20
161.282211
11
114.647556
21
161.112651
0
LINE
8
Layer_1
10
114.647556
20
161.112651
11
114.758615
21
161.282211
0
LINE
8
Layer_1
10
106.052812
20
161.509681
11
106.215306
21
161.502681
0
LINE
8
Layer_1
10
106.215306
20
161.502681
11
106.104033
21
161.458181
0
LINE
8
Layer_1
10
106.104033
20
161.458181
11
106.052813
21
161.509381
0
LINE
8
Layer_1
10
107.494066
20
161.509681
11
107.656559
21
161.502681
0
LINE
8
Layer_1
10
107.656559
20
161.502681
11
107.545286
21
161.458181
0
LINE
8
Layer_1
10
107.545286
20
161.458181
11
107.494067
21
161.509381
0
LINE
8
Layer_1
10
106.052813
20
161.509381
11
106.052812
21
161.509681
0
LINE
8
Layer_1
10
115.267295
20
161.875670
11
115.463135
21
162.045230
0
LINE
8
Layer_1
10
115.463135
20
162.045230
11
115.352075
21
161.875670
0
LINE
8
Layer_1
10
115.352075
20
161.875670
11
115.156235
21
161.706111
0
LINE
8
Layer_1
10
115.156235
20
161.706111
11
115.267295
21
161.875670
0
LINE
8
Layer_1
10
107.494067
20
161.509381
11
107.494066
21
161.509681
0
LINE
8
Layer_1
10
113.957487
20
161.968470
11
114.107214
21
162.879189
0
LINE
8
Layer_1
10
114.107214
20
162.879189
11
114.308001
21
163.559844
0
LINE
8
Layer_1
10
114.308001
20
163.559844
11
114.674835
21
163.091809
0
LINE
8
Layer_1
10
114.569526
20
162.498359
11
114.123649
21
162.003368
0
LINE
8
Layer_1
10
114.123649
20
162.003368
11
113.957487
21
161.968470
0
LINE
8
Layer_1
10
114.674835
20
163.091809
11
114.828035
21
162.824349
0
LINE
8
Layer_1
10
114.828035
20
162.824349
11
114.569526
21
162.498359
0
LINE
8
Layer_1
10
115.648804
20
162.331540
11
115.797164
21
162.479909
0
LINE
8
Layer_1
10
115.797164
20
162.479909
11
115.903141
21
162.553872
0
LINE
8
Layer_1
10
115.903141
20
162.553872
11
115.829164
21
162.447909
0
LINE
8
Layer_1
10
115.829164
20
162.447909
11
115.648794
21
162.331550
0
LINE
8
Layer_1
10
116.157484
20
162.924999
11
116.305843
21
163.073369
0
LINE
8
Layer_1
10
116.305843
20
163.073369
11
116.411821
21
163.147331
0
LINE
8
Layer_1
10
116.411821
20
163.147331
11
116.337843
21
163.041369
0
LINE
8
Layer_1
10
116.337843
20
163.041369
11
116.157474
21
162.925009
0
LINE
8
Layer_1
10
116.666163
20
163.518458
11
116.814523
21
163.666818
0
LINE
8
Layer_1
10
116.814523
20
163.666818
11
116.920496
21
163.740788
0
LINE
8
Layer_1
10
116.920496
20
163.740788
11
116.846523
21
163.634818
0
LINE
8
Layer_1
10
116.846523
20
163.634818
11
116.666153
21
163.518458
0
LINE
8
Layer_1
10
115.069715
20
164.397827
11
114.628176
21
165.303535
0
LINE
8
Layer_1
10
114.628176
20
165.303535
11
114.532626
21
166.509894
0
LINE
8
Layer_1
10
114.532626
20
166.509894
11
114.541448
21
167.454826
0
LINE
8
Layer_1
10
114.541448
20
167.454826
11
114.665366
21
167.894993
0
LINE
8
Layer_1
10
114.665366
20
167.894993
11
116.897973
21
171.718528
0
LINE
8
Layer_1
10
116.897973
20
171.718528
11
119.198180
21
175.377783
0
LINE
8
Layer_1
10
119.198180
20
175.377783
11
120.097832
21
175.479797
0
LINE
8
Layer_1
10
120.097832
20
175.479797
11
123.656764
21
175.461983
0
LINE
8
Layer_1
10
127.556169
20
175.122204
11
125.961331
21
173.809535
0
LINE
8
Layer_1
10
125.961331
20
173.809535
11
123.916274
21
172.100887
0
LINE
8
Layer_1
10
123.916274
20
172.100887
11
119.152760
21
167.777513
0
LINE
8
Layer_1
10
119.152760
20
167.777513
11
117.749212
21
166.242385
0
LINE
8
Layer_1
10
117.749212
20
166.242385
11
116.096004
21
164.371047
0
LINE
8
Layer_1
10
116.096004
20
164.371047
11
115.552554
21
163.829438
0
LINE
8
Layer_1
10
115.552554
20
163.829438
11
115.069715
21
164.397827
0
LINE
8
Layer_1
10
123.656764
20
175.461983
11
127.891119
21
175.413783
0
LINE
8
Layer_1
10
127.891119
20
175.413783
11
127.556169
21
175.122204
0
LINE
8
Layer_1
10
117.217222
20
164.164687
11
117.413062
21
164.334247
0
LINE
8
Layer_1
10
117.413062
20
164.334247
11
117.302002
21
164.164687
0
LINE
8
Layer_1
10
117.302002
20
164.164687
11
117.106162
21
163.995128
0
LINE
8
Layer_1
10
117.106162
20
163.995128
11
117.217222
21
164.164687
0
LINE
8
Layer_1
10
101.829729
20
164.699547
11
102.604913
21
165.966255
0
LINE
8
Layer_1
10
102.604913
20
165.966255
11
103.231643
21
166.111886
0
LINE
8
Layer_1
10
103.231643
20
166.111886
11
104.445460
21
166.060155
0
LINE
8
Layer_1
10
104.966574
20
165.652426
11
104.936896
21
165.318514
0
LINE
8
Layer_1
10
104.936896
20
165.318514
11
104.795590
21
165.128049
0
LINE
8
Layer_1
10
104.795590
20
165.128049
11
103.864439
21
164.988526
0
LINE
8
Layer_1
10
103.864439
20
164.988526
11
102.507965
21
164.767197
0
LINE
8
Layer_1
10
102.507965
20
164.767197
11
101.965849
21
164.598141
0
LINE
8
Layer_1
10
101.965849
20
164.598141
11
101.829729
21
164.699497
0
LINE
8
Layer_1
10
104.445460
20
166.060155
11
104.966574
21
166.005655
0
LINE
8
Layer_1
10
104.966574
20
166.005655
11
104.966574
21
165.652426
0
LINE
8
Layer_1
10
117.810682
20
164.842926
11
118.006521
21
165.012486
0
LINE
8
Layer_1
10
118.006521
20
165.012486
11
117.895461
21
164.842926
0
LINE
8
Layer_1
10
117.895461
20
164.842926
11
117.699622
21
164.673367
0
LINE
8
Layer_1
10
117.699622
20
164.673367
11
117.810682
21
164.842926
0
LINE
8
Layer_1
10
118.404141
20
165.521156
11
118.599981
21
165.690715
0
LINE
8
Layer_1
10
118.599981
20
165.690715
11
118.488921
21
165.521156
0
LINE
8
Layer_1
10
118.488921
20
165.521156
11
118.293081
21
165.351596
0
LINE
8
Layer_1
10
118.293081
20
165.351596
11
118.404141
21
165.521156
0
LINE
8
Layer_1
10
80.115337
20
165.923865
11
80.041372
21
166.029835
0
LINE
8
Layer_1
10
80.041372
20
166.029835
11
80.147347
21
165.955865
0
LINE
8
Layer_1
10
80.147347
20
165.955865
11
80.295711
21
165.807495
0
LINE
8
Layer_1
10
80.295711
20
165.807495
11
80.115338
21
165.923855
0
LINE
8
Layer_1
10
119.675829
20
166.877634
11
120.562838
21
167.725433
0
LINE
8
Layer_1
10
120.562838
20
167.725433
11
119.760609
21
166.877634
0
LINE
8
Layer_1
10
119.760609
20
166.877634
11
118.873610
21
166.029835
0
LINE
8
Layer_1
10
118.873610
20
166.029835
11
119.675829
21
166.877634
0
LINE
8
Layer_1
10
141.167462
20
166.146625
11
141.315822
21
166.294995
0
LINE
8
Layer_1
10
141.315822
20
166.294995
11
141.421799
21
166.368957
0
LINE
8
Layer_1
10
141.421799
20
166.368957
11
141.347822
21
166.262995
0
LINE
8
Layer_1
10
141.347822
20
166.262995
11
141.167452
21
166.146635
0
LINE
8
Layer_1
10
140.574003
20
167.089584
11
140.815513
21
167.301534
0
LINE
8
Layer_1
10
140.815513
20
167.301534
11
140.658783
21
167.089584
0
LINE
8
Layer_1
10
140.658783
20
167.089584
11
140.417283
21
166.877634
0
LINE
8
Layer_1
10
140.417283
20
166.877634
11
140.574003
21
167.089584
0
LINE
8
Layer_1
10
106.054188
20
169.717750
11
106.034958
21
171.755658
0
LINE
8
Layer_1
10
106.034958
20
171.755658
11
106.143219
21
172.958353
0
LINE
8
Layer_1
10
106.143219
20
172.958353
11
106.460362
21
173.697325
0
LINE
8
Layer_1
10
106.460362
20
173.697325
11
107.067780
21
174.344065
0
LINE
8
Layer_1
10
107.067780
20
174.344065
11
107.875772
21
175.041284
0
LINE
8
Layer_1
10
107.875772
20
175.041284
11
108.172399
21
175.403329
0
LINE
8
Layer_1
10
108.172399
20
175.403329
11
108.022025
21
175.734033
0
LINE
8
Layer_1
10
108.022025
20
175.734033
11
107.780908
21
175.851430
0
LINE
8
Layer_1
10
107.780908
20
175.851430
11
107.476847
21
175.805205
0
LINE
8
Layer_1
10
107.476847
20
175.805205
11
106.591428
21
175.188133
0
LINE
8
Layer_1
10
106.591428
20
175.188133
11
105.760478
21
174.338783
0
LINE
8
Layer_1
10
105.760478
20
174.338783
11
105.281085
21
173.480066
0
LINE
8
Layer_1
10
105.281085
20
173.480066
11
105.117762
21
172.668243
0
LINE
8
Layer_1
10
105.117762
20
172.668243
11
105.068168
21
170.078420
0
LINE
8
Layer_1
10
106.874114
20
167.041984
11
106.111098
21
167.089584
0
LINE
8
Layer_1
10
106.111098
20
167.089584
11
106.054188
21
169.717750
0
LINE
8
Layer_1
10
104.822915
20
167.077894
11
102.500637
21
167.178904
0
LINE
8
Layer_1
10
102.500637
20
167.178904
11
101.358373
21
169.104511
0
LINE
8
Layer_1
10
101.358373
20
169.104511
11
99.005877
21
173.193736
0
LINE
8
Layer_1
10
99.005877
20
173.193736
11
97.944955
21
175.092236
0
LINE
8
Layer_1
10
97.944955
20
175.092236
11
97.692304
21
175.841753
0
LINE
8
Layer_1
10
105.068168
20
170.078420
11
105.041338
21
167.132694
0
LINE
8
Layer_1
10
105.041338
20
167.132694
11
104.822915
21
167.077894
0
LINE
8
Layer_1
10
99.305021
20
179.190548
11
101.751589
21
183.525333
0
LINE
8
Layer_1
10
101.751589
20
183.525333
11
102.719042
21
185.020161
0
LINE
8
Layer_1
10
102.719042
20
185.020161
11
107.911281
21
185.040261
0
LINE
8
Layer_1
10
107.911281
20
185.040261
11
112.115131
21
184.980169
0
LINE
8
Layer_1
10
112.115131
20
184.980169
11
113.048526
21
184.859521
0
LINE
8
Layer_1
10
113.048526
20
184.859521
11
118.022621
21
175.772853
0
LINE
8
Layer_1
10
118.022621
20
175.772853
11
116.159665
21
172.445851
0
LINE
8
Layer_1
10
116.159665
20
172.445851
11
114.193276
21
169.293861
0
LINE
8
Layer_1
10
114.193276
20
169.293861
11
114.092399
21
169.887320
0
LINE
8
Layer_1
10
114.092399
20
169.887320
11
114.297471
21
170.976510
0
LINE
8
Layer_1
10
114.297471
20
170.976510
11
114.921515
21
172.283087
0
LINE
8
Layer_1
10
114.921515
20
172.283087
11
115.285654
21
173.060354
0
LINE
8
Layer_1
10
115.285654
20
173.060354
11
115.143535
21
173.444966
0
LINE
8
Layer_1
10
115.143535
20
173.444966
11
114.748243
21
173.520437
0
LINE
8
Layer_1
10
114.748243
20
173.520437
11
114.262426
21
173.046706
0
LINE
8
Layer_1
10
114.262426
20
173.046706
11
113.656962
21
172.041022
0
LINE
8
Layer_1
10
113.656962
20
172.041022
11
113.253121
21
170.975752
0
LINE
8
Layer_1
10
113.253121
20
170.975752
11
113.064980
21
169.901774
0
LINE
8
Layer_1
10
113.064980
20
169.901774
11
113.106618
21
168.869961
0
LINE
8
Layer_1
10
113.106618
20
168.869961
11
113.260969
21
167.624860
0
LINE
8
Layer_1
10
113.260969
20
167.624860
11
113.076859
21
167.180503
0
LINE
8
Layer_1
10
97.692304
20
175.841753
11
97.654744
21
176.285502
0
LINE
8
Layer_1
10
97.654744
20
176.285502
11
99.305021
21
179.190548
0
LINE
8
Layer_1
10
110.247947
20
166.978424
11
106.874104
21
167.042024
0
LINE
8
Layer_1
10
113.076859
20
167.180503
11
112.858774
21
166.962424
0
LINE
8
Layer_1
10
112.858774
20
166.962424
11
110.247947
21
166.978424
0
LINE
8
Layer_1
10
142.184821
20
167.248733
11
142.333181
21
167.397093
0
LINE
8
Layer_1
10
142.333181
20
167.397093
11
142.439158
21
167.471063
0
LINE
8
Layer_1
10
142.439158
20
167.471063
11
142.365181
21
167.365093
0
LINE
8
Layer_1
10
142.365181
20
167.365093
11
142.184811
21
167.248743
0
LINE
8
Layer_1
10
140.997902
20
167.497593
11
141.273432
21
167.773123
0
LINE
8
Layer_1
10
141.299962
20
167.746593
11
140.997902
21
167.497593
0
LINE
8
Layer_1
10
141.273432
20
167.773123
11
141.548972
21
168.022132
0
LINE
8
Layer_1
10
141.548972
20
168.022132
11
141.299962
21
167.746593
0
LINE
8
Layer_1
10
121.244257
20
168.361242
11
121.485767
21
168.573192
0
LINE
8
Layer_1
10
121.485767
20
168.573192
11
121.329037
21
168.361242
0
LINE
8
Layer_1
10
121.329037
20
168.361242
11
121.087528
21
168.149292
0
LINE
8
Layer_1
10
121.087528
20
168.149292
11
121.244257
21
168.361242
0
LINE
8
Layer_1
10
121.922496
20
168.938841
11
122.198026
21
169.214371
0
LINE
8
Layer_1
10
122.224556
20
169.187851
11
121.922496
21
168.938841
0
LINE
8
Layer_1
10
122.198026
20
169.214371
11
122.473566
21
169.463381
0
LINE
8
Layer_1
10
122.473566
20
169.463381
11
122.224556
21
169.187851
0
LINE
8
Layer_1
10
123.109405
20
170.056840
11
123.350915
21
170.268790
0
LINE
8
Layer_1
10
123.350915
20
170.268790
11
123.194185
21
170.056840
0
LINE
8
Layer_1
10
123.194185
20
170.056840
11
122.952685
21
169.844890
0
LINE
8
Layer_1
10
122.952685
20
169.844890
11
123.109405
21
170.056840
0
LINE
8
Layer_1
10
124.041984
20
170.904639
11
124.283493
21
171.116579
0
LINE
8
Layer_1
10
124.283493
20
171.116579
11
124.126764
21
170.904639
0
LINE
8
Layer_1
10
124.126764
20
170.904639
11
123.885254
21
170.692689
0
LINE
8
Layer_1
10
123.885254
20
170.692689
11
124.041984
21
170.904639
0
LINE
8
Layer_1
10
144.056659
20
170.826939
11
144.107859
21
170.878139
0
LINE
8
Layer_1
10
144.107859
20
170.878139
11
144.100858
21
170.715649
0
LINE
8
Layer_1
10
144.100858
20
170.715649
11
144.056359
21
170.826919
0
LINE
8
Layer_1
10
124.677833
20
171.455718
11
124.873673
21
171.625278
0
LINE
8
Layer_1
10
124.873673
20
171.625278
11
124.762613
21
171.455718
0
LINE
8
Layer_1
10
124.762613
20
171.455718
11
124.566773
21
171.286158
0
LINE
8
Layer_1
10
124.566773
20
171.286158
11
124.677833
21
171.455718
0
LINE
8
Layer_1
10
144.056359
20
170.826919
11
144.056659
21
170.826939
0
LINE
8
Layer_1
10
125.144122
20
171.826848
11
125.292482
21
171.975218
0
LINE
8
Layer_1
10
125.292482
20
171.975218
11
125.398456
21
172.049180
0
LINE
8
Layer_1
10
125.398456
20
172.049180
11
125.324482
21
171.943218
0
LINE
8
Layer_1
10
125.324482
20
171.943218
11
125.144112
21
171.826858
0
LINE
8
Layer_1
10
125.568012
20
172.165967
11
125.716382
21
172.314327
0
LINE
8
Layer_1
10
125.716382
20
172.314327
11
125.822351
21
172.388297
0
LINE
8
Layer_1
10
125.822351
20
172.388297
11
125.748381
21
172.282327
0
LINE
8
Layer_1
10
125.748381
20
172.282327
11
125.568002
21
172.165967
0
LINE
8
Layer_1
10
144.056659
20
172.352977
11
144.107859
21
172.404177
0
LINE
8
Layer_1
10
144.107859
20
172.404177
11
144.100858
21
172.241677
0
LINE
8
Layer_1
10
144.100858
20
172.241677
11
144.056359
21
172.352957
0
LINE
8
Layer_1
10
126.076691
20
172.589867
11
126.225061
21
172.738227
0
LINE
8
Layer_1
10
126.225061
20
172.738227
11
126.331031
21
172.812196
0
LINE
8
Layer_1
10
126.331031
20
172.812196
11
126.257061
21
172.706227
0
LINE
8
Layer_1
10
126.257061
20
172.706227
11
126.076681
21
172.589877
0
LINE
8
Layer_1
10
144.056359
20
172.352957
11
144.056659
21
172.352977
0
LINE
8
Layer_1
10
126.585370
20
173.013766
11
126.733740
21
173.162126
0
LINE
8
Layer_1
10
126.733740
20
173.162126
11
126.839710
21
173.236096
0
LINE
8
Layer_1
10
126.839710
20
173.236096
11
126.765740
21
173.130126
0
LINE
8
Layer_1
10
126.765740
20
173.130126
11
126.585370
21
173.013776
0
LINE
8
Layer_1
10
127.009270
20
173.352886
11
127.157630
21
173.501246
0
LINE
8
Layer_1
10
127.157630
20
173.501246
11
127.263607
21
173.575216
0
LINE
8
Layer_1
10
127.263607
20
173.575216
11
127.189630
21
173.469246
0
LINE
8
Layer_1
10
127.189630
20
173.469246
11
127.009260
21
173.352896
0
LINE
8
Layer_1
10
142.089221
20
173.723575
11
142.015259
21
173.829549
0
LINE
8
Layer_1
10
142.015259
20
173.829549
11
142.121221
21
173.755575
0
LINE
8
Layer_1
10
142.121221
20
173.755575
11
142.237581
21
173.575205
0
LINE
8
Layer_1
10
142.237581
20
173.575205
11
142.089211
21
173.723565
0
LINE
8
Layer_1
10
127.517949
20
173.776775
11
127.666309
21
173.925145
0
LINE
8
Layer_1
10
127.666309
20
173.925145
11
127.772287
21
173.999111
0
LINE
8
Layer_1
10
127.772287
20
173.999111
11
127.698309
21
173.893145
0
LINE
8
Layer_1
10
127.698309
20
173.893145
11
127.517939
21
173.776785
0
LINE
8
Layer_1
10
135.895229
20
175.922173
11
136.057729
21
175.915173
0
LINE
8
Layer_1
10
136.057729
20
175.915173
11
135.946449
21
175.870673
0
LINE
8
Layer_1
10
135.946449
20
175.870673
11
135.895249
21
175.921873
0
LINE
8
Layer_1
10
132.922643
20
176.005173
11
133.134592
21
176.005173
0
LINE
8
Layer_1
10
133.134592
20
176.005173
11
133.028622
21
175.962373
0
LINE
8
Layer_1
10
133.028622
20
175.962373
11
132.922643
21
176.005173
0
LINE
8
Layer_1
10
135.895249
20
175.921873
11
135.895229
21
175.922173
0
LINE
8
Layer_1
10
134.916580
20
176.008172
11
135.170920
21
176.005173
0
LINE
8
Layer_1
10
135.170920
20
176.005173
11
135.020940
21
175.966072
0
LINE
8
Layer_1
10
135.020940
20
175.966072
11
134.916580
21
176.008272
0
LINE
8
Layer_1
10
95.280505
20
176.520172
11
96.001131
21
176.520172
0
LINE
8
Layer_1
10
96.001131
20
176.520172
11
96.043918
21
176.497297
0
LINE
8
Layer_1
10
96.043918
20
176.497297
11
95.640818
21
176.487772
0
LINE
8
Layer_1
10
95.640818
20
176.487772
11
95.237717
21
176.497297
0
LINE
8
Layer_1
10
95.237717
20
176.497297
11
95.280505
21
176.520172
0
LINE
8
Layer_1
10
134.916580
20
176.008272
11
134.916580
21
176.008172
0
LINE
8
Layer_1
10
86.122417
20
176.604072
11
86.715874
21
176.604762
0
LINE
8
Layer_1
10
86.715874
20
176.604762
11
86.767415
21
176.580999
0
LINE
8
Layer_1
10
86.767415
20
176.580999
11
86.442231
21
176.570662
0
LINE
8
Layer_1
10
86.442231
20
176.570662
11
86.103485
21
176.580169
0
LINE
8
Layer_1
10
86.103485
20
176.580169
11
86.122417
21
176.604062
0
LINE
8
Layer_1
10
118.675370
20
176.860201
11
116.159434
21
181.358776
0
LINE
8
Layer_1
10
113.970874
20
185.809700
11
118.850510
21
194.285209
0
LINE
8
Layer_1
10
118.850510
20
194.285209
11
119.677699
21
194.405547
0
LINE
8
Layer_1
10
119.677699
20
194.405547
11
123.866354
21
194.379109
0
LINE
8
Layer_1
10
123.866354
20
194.379109
11
129.123757
21
194.270609
0
LINE
8
Layer_1
10
116.159434
20
181.358776
11
113.841459
21
185.538820
0
LINE
8
Layer_1
10
113.841459
20
185.538820
11
113.970874
21
185.809700
0
LINE
8
Layer_1
10
132.069844
20
189.902565
11
134.635650
21
185.494360
0
LINE
8
Layer_1
10
134.635650
20
185.494360
11
132.312423
21
180.993756
0
LINE
8
Layer_1
10
129.123757
20
194.270609
11
129.500257
21
194.218710
0
LINE
8
Layer_1
10
129.500257
20
194.218710
11
132.069844
21
189.902565
0
LINE
8
Layer_1
10
137.336487
20
176.770401
11
137.498977
21
176.763402
0
LINE
8
Layer_1
10
137.498977
20
176.763402
11
137.387707
21
176.718902
0
LINE
8
Layer_1
10
137.387707
20
176.718902
11
137.336507
21
176.770102
0
LINE
8
Layer_1
10
132.312423
20
180.993756
11
129.992986
21
176.585222
0
LINE
8
Layer_1
10
129.992986
20
176.585222
11
124.433153
21
176.563422
0
LINE
8
Layer_1
10
124.433153
20
176.563422
11
118.873320
21
176.541622
0
LINE
8
Layer_1
10
118.873320
20
176.541622
11
118.675370
21
176.860201
0
LINE
8
Layer_1
10
136.149568
20
176.939961
11
136.312068
21
176.932961
0
LINE
8
Layer_1
10
136.312068
20
176.932961
11
136.200788
21
176.888461
0
LINE
8
Layer_1
10
136.200788
20
176.888461
11
136.149588
21
176.939661
0
LINE
8
Layer_1
10
137.336507
20
176.770102
11
137.336487
21
176.770401
0
LINE
8
Layer_1
10
132.498753
20
177.022961
11
132.710693
21
177.022961
0
LINE
8
Layer_1
10
132.710693
20
177.022961
11
132.604723
21
176.980161
0
LINE
8
Layer_1
10
132.604723
20
176.980161
11
132.498753
21
177.022961
0
LINE
8
Layer_1
10
136.149588
20
176.939661
11
136.149568
21
176.939961
0
LINE
8
Layer_1
10
135.170920
20
177.025961
11
135.425259
21
177.022961
0
LINE
8
Layer_1
10
135.425259
20
177.022961
11
135.275279
21
176.983861
0
LINE
8
Layer_1
10
135.275279
20
176.983861
11
135.170920
21
177.026061
0
LINE
8
Layer_1
10
108.124614
20
186.101830
11
109.777816
21
186.101830
0
LINE
8
Layer_1
10
109.777816
20
186.101830
11
109.968321
21
186.091089
0
LINE
8
Layer_1
10
109.968321
20
186.091089
11
109.875974
21
186.082280
0
LINE
8
Layer_1
10
109.875974
20
186.082280
11
108.951215
21
186.074130
0
LINE
8
Layer_1
10
108.951215
20
186.074130
11
108.026455
21
186.082280
0
LINE
8
Layer_1
10
108.026455
20
186.082280
11
107.934108
21
186.091089
0
LINE
8
Layer_1
10
107.934108
20
186.091089
11
108.124614
21
186.101830
0
LINE
8
Layer_1
10
135.170920
20
177.026061
11
135.170920
21
177.025961
0
LINE
8
Layer_1
10
127.030460
20
195.427247
11
128.174989
21
195.427247
0
LINE
8
Layer_1
10
128.174989
20
195.427247
11
128.306876
21
195.415732
0
LINE
8
Layer_1
10
128.306876
20
195.415732
11
128.242937
21
195.406301
0
LINE
8
Layer_1
10
128.242937
20
195.406301
11
127.602729
21
195.397587
0
LINE
8
Layer_1
10
127.602729
20
195.397587
11
126.962509
21
195.406319
0
LINE
8
Layer_1
10
126.962509
20
195.406319
11
126.898574
21
195.415753
0
LINE
8
Layer_1
10
126.898574
20
195.415753
11
127.030460
21
195.427247
0
LINE
8
Layer_1
10
129.536757
20
195.422247
11
129.699257
21
195.415247
0
LINE
8
Layer_1
10
129.699257
20
195.415247
11
129.587987
21
195.370747
0
LINE
8
Layer_1
10
129.587987
20
195.370747
11
129.536787
21
195.421947
0
LINE
8
Layer_1
10
119.063740
20
195.511537
11
119.826759
21
195.511067
0
LINE
8
Layer_1
10
119.826759
20
195.511067
11
119.855287
21
195.488372
0
LINE
8
Layer_1
10
119.855287
20
195.488372
11
119.421499
21
195.479207
0
LINE
8
Layer_1
10
119.421499
20
195.479207
11
119.001664
21
195.488899
0
LINE
8
Layer_1
10
119.001664
20
195.488899
11
119.063740
21
195.511537
0
LINE
8
Layer_1
10
129.536787
20
195.421947
11
129.536757
21
195.422247
0
LINE
8
Layer_1
10
101.883071
20
108.994337
11
99.162621
21
113.593631
0
LINE
8
Layer_1
10
99.162621
20
113.593631
11
96.479114
21
118.148375
0
LINE
8
Layer_1
10
96.479114
20
118.148375
11
95.543666
21
118.265010
0
LINE
8
Layer_1
10
95.543666
20
118.265010
11
91.077188
21
118.244575
0
LINE
8
Layer_1
10
85.560716
20
118.395135
11
84.748754
21
119.538551
0
LINE
8
Layer_1
10
84.748754
20
119.538551
11
81.426717
21
125.335666
0
LINE
8
Layer_1
10
81.426717
20
125.335666
11
80.148479
21
127.646035
0
LINE
8
Layer_1
10
80.148479
20
127.646035
11
79.902387
21
128.361283
0
LINE
8
Layer_1
10
79.902387
20
128.361283
11
80.843429
21
130.138010
0
LINE
8
Layer_1
10
80.843429
20
130.138010
11
81.718604
21
131.766368
0
LINE
8
Layer_1
10
81.718604
20
131.766368
11
80.955720
21
132.037738
0
LINE
8
Layer_1
10
80.955720
20
132.037738
11
79.765848
21
132.339071
0
LINE
8
Layer_1
10
79.765848
20
132.339071
11
78.388169
21
132.870527
0
LINE
8
Layer_1
10
91.077188
20
118.244575
11
85.848774
21
118.194575
0
LINE
8
Layer_1
10
85.848774
20
118.194575
11
85.560716
21
118.395135
0
LINE
8
Layer_1
10
74.615477
20
133.264566
11
71.608631
21
133.344485
0
LINE
8
Layer_1
10
71.608631
20
133.344485
11
70.872214
21
133.511032
0
LINE
8
Layer_1
10
70.872214
20
133.511032
11
70.158893
21
133.823216
0
LINE
8
Layer_1
10
70.158893
20
133.823216
11
69.042095
21
134.553072
0
LINE
8
Layer_1
10
69.042095
20
134.553072
11
68.297443
21
135.435794
0
LINE
8
Layer_1
10
68.297443
20
135.435794
11
68.077656
21
135.992327
0
LINE
8
Layer_1
10
68.077656
20
135.992327
11
68.016170
21
137.048112
0
LINE
8
Layer_1
10
68.016170
20
137.048112
11
68.055966
21
138.487555
0
LINE
8
Layer_1
10
68.055966
20
138.487555
11
68.249009
21
139.849057
0
LINE
8
Layer_1
10
68.249009
20
139.849057
11
68.593443
21
141.123505
0
LINE
8
Layer_1
10
68.593443
20
141.123505
11
69.087409
21
142.301785
0
LINE
8
Layer_1
10
69.087409
20
142.301785
11
70.072339
21
143.880045
0
LINE
8
Layer_1
10
70.072339
20
143.880045
11
71.257352
21
145.402701
0
LINE
8
Layer_1
10
71.257352
20
145.402701
11
73.276025
21
147.069441
0
LINE
8
Layer_1
10
73.276025
20
147.069441
11
76.141510
21
148.743217
0
LINE
8
Layer_1
10
76.141510
20
148.743217
11
78.026450
21
149.576173
0
LINE
8
Layer_1
10
78.026450
20
149.576173
11
80.422880
21
150.391175
0
LINE
8
Layer_1
10
80.422880
20
150.391175
11
81.821743
21
150.849454
0
LINE
8
Layer_1
10
81.821743
20
150.849454
11
83.586078
21
153.972140
0
LINE
8
Layer_1
10
78.388169
20
132.870527
11
77.455593
21
133.262566
0
LINE
8
Layer_1
10
77.455593
20
133.262566
11
74.615477
21
133.264566
0
LINE
8
Layer_1
10
85.078870
20
157.313316
11
80.123732
21
165.987795
0
LINE
8
Layer_1
10
80.123732
20
165.987795
11
79.919317
21
166.380213
0
LINE
8
Layer_1
10
79.919317
20
166.380213
11
79.982330
21
166.808174
0
LINE
8
Layer_1
10
79.982330
20
166.808174
11
82.543475
21
171.328908
0
LINE
8
Layer_1
10
82.543475
20
171.328908
11
85.188609
21
175.969782
0
LINE
8
Layer_1
10
85.188609
20
175.969782
11
85.565877
21
176.465482
0
LINE
8
Layer_1
10
85.565877
20
176.465482
11
91.051303
21
176.533382
0
LINE
8
Layer_1
10
91.051303
20
176.533382
11
96.524912
21
176.600582
0
LINE
8
Layer_1
10
96.524912
20
176.600582
11
99.244182
21
181.213156
0
LINE
8
Layer_1
10
99.244182
20
181.213156
11
102.033801
21
185.906600
0
LINE
8
Layer_1
10
102.033801
20
185.906600
11
102.915693
21
186.054134
0
LINE
8
Layer_1
10
102.915693
20
186.054134
11
107.501876
21
186.050430
0
LINE
8
Layer_1
10
83.586078
20
153.972140
11
85.223243
21
157.032026
0
LINE
8
Layer_1
10
85.223243
20
157.032026
11
85.078870
21
157.313316
0
LINE
8
Layer_1
10
112.941969
20
186.270099
11
115.606414
21
190.825954
0
LINE
8
Layer_1
10
115.606414
20
190.825954
11
118.319361
21
195.295198
0
LINE
8
Layer_1
10
118.319361
20
195.295198
11
119.307910
21
195.431464
0
LINE
8
Layer_1
10
119.307910
20
195.431464
11
124.169154
21
195.425278
0
LINE
8
Layer_1
10
124.169154
20
195.425278
11
129.937066
21
195.284248
0
LINE
8
Layer_1
10
129.937066
20
195.284248
11
130.452198
21
194.625611
0
LINE
8
Layer_1
10
130.452198
20
194.625611
11
132.901833
21
190.531484
0
LINE
8
Layer_1
10
132.901833
20
190.531484
11
135.586039
21
186.110740
0
LINE
8
Layer_1
10
135.586039
20
186.110740
11
135.822509
21
185.602060
0
LINE
8
Layer_1
10
135.822509
20
185.602060
11
133.584942
21
181.163336
0
LINE
8
Layer_1
10
133.584942
20
181.163336
11
131.382684
21
176.871821
0
LINE
8
Layer_1
10
131.382684
20
176.871821
11
131.776294
21
176.891721
0
LINE
8
Layer_1
10
131.776294
20
176.891721
11
133.465344
21
177.024255
0
LINE
8
Layer_1
10
133.465344
20
177.024255
11
135.471299
21
176.974921
0
LINE
8
Layer_1
10
135.471299
20
176.974921
11
137.190379
21
176.765483
0
LINE
8
Layer_1
10
137.190379
20
176.765483
11
138.670607
21
176.446919
0
LINE
8
Layer_1
10
138.670607
20
176.446919
11
140.045807
21
175.982537
0
LINE
8
Layer_1
10
140.045807
20
175.982537
11
141.449802
21
175.335643
0
LINE
8
Layer_1
10
141.449802
20
175.335643
11
142.553388
21
174.694512
0
LINE
8
Layer_1
10
142.553388
20
174.694512
11
143.308512
21
174.054922
0
LINE
8
Layer_1
10
143.308512
20
174.054922
11
143.784160
21
173.341004
0
LINE
8
Layer_1
10
143.784160
20
173.341004
11
144.049318
21
172.476887
0
LINE
8
Layer_1
10
144.049318
20
172.476887
11
144.103400
21
171.098317
0
LINE
8
Layer_1
10
144.103400
20
171.098317
11
143.735924
21
169.692342
0
LINE
8
Layer_1
10
143.735924
20
169.692342
11
142.934566
21
168.228708
0
LINE
8
Layer_1
10
142.934566
20
168.228708
11
141.687002
21
166.677164
0
LINE
8
Layer_1
10
141.687002
20
166.677164
11
140.540808
21
165.096311
0
LINE
8
Layer_1
10
140.540808
20
165.096311
11
139.639984
21
162.887439
0
LINE
8
Layer_1
10
139.639984
20
162.887439
11
138.896842
21
160.945554
0
LINE
8
Layer_1
10
138.896842
20
160.945554
11
138.059697
21
159.510787
0
LINE
8
Layer_1
10
138.059697
20
159.510787
11
136.958810
21
158.356368
0
LINE
8
Layer_1
10
136.958810
20
158.356368
11
135.424439
21
157.255526
0
LINE
8
Layer_1
10
107.501876
20
186.050430
11
112.736132
21
186.020230
0
LINE
8
Layer_1
10
112.736132
20
186.020230
11
112.941969
21
186.270099
0
LINE
8
Layer_1
10
134.273281
20
155.178429
11
134.210461
21
153.298798
0
LINE
8
Layer_1
10
134.210461
20
153.298798
11
133.814522
21
151.804383
0
LINE
8
Layer_1
10
133.814522
20
151.804383
11
133.646624
21
151.302074
0
LINE
8
Layer_1
10
133.646624
20
151.302074
11
133.720121
21
151.031334
0
LINE
8
Layer_1
10
133.720121
20
151.031334
11
134.752130
21
149.269686
0
LINE
8
Layer_1
10
134.752130
20
149.269686
11
135.656779
21
147.510878
0
LINE
8
Layer_1
10
135.656779
20
147.510878
11
132.975752
21
142.525455
0
LINE
8
Layer_1
10
132.975752
20
142.525455
11
130.295296
21
137.544271
0
LINE
8
Layer_1
10
130.295296
20
137.544271
11
132.933932
21
132.967547
0
LINE
8
Layer_1
10
132.933932
20
132.967547
11
135.066897
21
129.379864
0
LINE
8
Layer_1
10
135.066897
20
129.379864
11
135.566769
21
128.304663
0
LINE
8
Layer_1
10
135.566769
20
128.304663
11
132.996922
21
123.301299
0
LINE
8
Layer_1
10
132.996922
20
123.301299
11
130.844135
21
119.415027
0
LINE
8
Layer_1
10
130.844135
20
119.415027
11
130.165336
21
118.460015
0
LINE
8
Layer_1
10
130.165336
20
118.460015
11
129.016020
21
118.336735
0
LINE
8
Layer_1
10
129.016020
20
118.336735
11
124.540893
21
118.261485
0
LINE
8
Layer_1
10
124.540893
20
118.261485
11
118.998340
21
118.114655
0
LINE
8
Layer_1
10
118.998340
20
118.114655
11
116.249274
21
113.543001
0
LINE
8
Layer_1
10
116.249274
20
113.543001
11
114.159718
21
109.947323
0
LINE
8
Layer_1
10
114.159718
20
109.947323
11
113.441946
21
108.929827
0
LINE
8
Layer_1
10
113.441946
20
108.929827
11
112.244908
21
108.826591
0
LINE
8
Layer_1
10
112.244908
20
108.826591
11
107.646058
21
108.803987
0
LINE
8
Layer_1
10
135.424439
20
157.255526
11
134.224681
21
156.492517
0
LINE
8
Layer_1
10
134.224681
20
156.492517
11
134.273281
21
155.178429
0
LINE
8
Layer_1
10
112.800952
20
109.956876
11
115.437935
21
114.394845
0
LINE
8
Layer_1
10
115.437935
20
114.394845
11
117.937851
21
118.968084
0
LINE
8
Layer_1
10
117.937851
20
118.968084
11
112.957143
21
127.813383
0
LINE
8
Layer_1
10
112.957143
20
127.813383
11
112.276271
21
127.937118
0
LINE
8
Layer_1
10
112.276271
20
127.937118
11
109.154912
21
127.960953
0
LINE
8
Layer_1
10
107.646058
20
108.803987
11
102.093512
21
108.803987
0
LINE
8
Layer_1
10
102.093512
20
108.803987
11
101.883071
21
108.994337
0
LINE
8
Layer_1
10
105.385509
20
127.605993
11
105.367450
21
126.831011
0
LINE
8
Layer_1
10
105.367450
20
126.831011
11
105.868196
21
126.066295
0
LINE
8
Layer_1
10
105.868196
20
126.066295
11
106.761987
21
124.948272
0
LINE
8
Layer_1
10
106.761987
20
124.948272
11
107.728935
21
123.385439
0
LINE
8
Layer_1
10
107.728935
20
123.385439
11
109.189801
21
120.468165
0
LINE
8
Layer_1
10
109.189801
20
120.468165
11
109.960083
21
117.856186
0
LINE
8
Layer_1
10
109.960083
20
117.856186
11
110.209738
21
115.964623
0
LINE
8
Layer_1
10
110.209738
20
115.964623
11
110.258046
21
114.581680
0
LINE
8
Layer_1
10
110.258046
20
114.581680
11
109.979478
21
113.883641
0
LINE
8
Layer_1
10
109.979478
20
113.883641
11
109.777924
21
113.848741
0
LINE
8
Layer_1
10
109.777924
20
113.848741
11
109.439251
21
113.974550
0
LINE
8
Layer_1
10
109.439251
20
113.974550
11
109.268345
21
114.325901
0
LINE
8
Layer_1
10
109.268345
20
114.325901
11
109.192856
21
115.641428
0
LINE
8
Layer_1
10
109.192856
20
115.641428
11
108.970305
21
117.766268
0
LINE
8
Layer_1
10
108.970305
20
117.766268
11
108.351394
21
119.867063
0
LINE
8
Layer_1
10
108.351394
20
119.867063
11
106.892961
21
122.905619
0
LINE
8
Layer_1
10
106.892961
20
122.905619
11
105.997503
21
124.349558
0
LINE
8
Layer_1
10
105.997503
20
124.349558
11
105.161639
21
125.445246
0
LINE
8
Layer_1
10
105.161639
20
125.445246
11
104.311410
21
126.520786
0
LINE
8
Layer_1
10
104.311410
20
126.520786
11
104.223697
21
126.876715
0
LINE
8
Layer_1
10
104.223697
20
126.876715
11
104.275499
21
127.289164
0
LINE
8
Layer_1
10
104.275499
20
127.289164
11
104.333578
21
127.874123
0
LINE
8
Layer_1
10
104.333578
20
127.874123
11
103.708358
21
128.010883
0
LINE
8
Layer_1
10
103.708358
20
128.010883
11
102.902618
21
127.967823
0
LINE
8
Layer_1
10
102.902618
20
127.967823
11
102.559566
21
127.774971
0
LINE
8
Layer_1
10
102.559566
20
127.774971
11
102.181672
21
127.344936
0
LINE
8
Layer_1
10
102.181672
20
127.344936
11
100.944664
21
125.250536
0
LINE
8
Layer_1
10
100.944664
20
125.250536
11
98.683469
21
121.201272
0
LINE
8
Layer_1
10
98.683469
20
121.201272
11
97.464777
21
118.980624
0
LINE
8
Layer_1
10
97.464777
20
118.980624
11
97.595213
21
118.459415
0
LINE
8
Layer_1
10
97.595213
20
118.459415
11
102.306132
21
110.223355
0
LINE
8
Layer_1
10
109.154912
20
127.960953
11
105.481359
21
127.961953
0
LINE
8
Layer_1
10
105.481359
20
127.961953
11
105.385509
21
127.605993
0
LINE
8
Layer_1
10
107.589010
20
109.905436
11
112.800951
21
109.956636
0
LINE
8
Layer_1
10
102.306132
20
110.223355
11
102.510370
21
109.905436
0
LINE
8
Layer_1
10
102.510370
20
109.905436
11
107.589010
21
109.905436
0
LINE
8
Layer_1
10
129.180827
20
119.366064
11
129.701997
21
119.595264
0
LINE
8
Layer_1
10
129.701997
20
119.595264
11
132.148465
21
123.977728
0
LINE
8
Layer_1
10
132.148465
20
123.977728
11
134.385091
21
128.294013
0
LINE
8
Layer_1
10
134.385091
20
128.294013
11
129.264377
21
136.972102
0
LINE
8
Layer_1
10
129.264377
20
136.972102
11
128.493848
21
137.014502
0
LINE
8
Layer_1
10
128.493848
20
137.014502
11
127.942948
21
136.969759
0
LINE
8
Layer_1
10
127.942948
20
136.969759
11
127.789749
21
136.852462
0
LINE
8
Layer_1
10
127.789749
20
136.852462
11
128.016747
21
136.023630
0
LINE
8
Layer_1
10
128.016747
20
136.023630
11
128.712192
21
134.617646
0
LINE
8
Layer_1
10
128.712192
20
134.617646
11
129.662544
21
133.023736
0
LINE
8
Layer_1
10
129.662544
20
133.023736
11
130.654265
21
131.631128
0
LINE
8
Layer_1
10
130.654265
20
131.631128
11
131.862904
21
130.138790
0
LINE
8
Layer_1
10
131.862904
20
130.138790
11
132.350383
21
129.371671
0
LINE
8
Layer_1
10
132.350383
20
129.371671
11
132.192758
21
129.042040
0
LINE
8
Layer_1
10
132.192758
20
129.042040
11
131.836084
21
128.896362
0
LINE
8
Layer_1
10
131.836084
20
128.896362
11
131.517513
21
129.049352
0
LINE
8
Layer_1
10
131.517513
20
129.049352
11
130.933555
21
129.680571
0
LINE
8
Layer_1
10
130.933555
20
129.680571
11
129.486867
21
131.511330
0
LINE
8
Layer_1
10
129.486867
20
131.511330
11
128.271351
21
133.314846
0
LINE
8
Layer_1
10
128.271351
20
133.314846
11
127.370381
21
134.955447
0
LINE
8
Layer_1
10
127.370381
20
134.955447
11
126.867330
21
136.297462
0
LINE
8
Layer_1
10
126.867330
20
136.297462
11
126.612854
21
136.912324
0
LINE
8
Layer_1
10
126.612854
20
136.912324
11
126.212391
21
137.002532
0
LINE
8
Layer_1
10
126.212391
20
137.002532
11
124.280773
21
136.947032
0
LINE
8
Layer_1
10
124.280773
20
136.947032
11
122.364696
21
136.818072
0
LINE
8
Layer_1
10
122.364696
20
136.818072
11
121.727937
21
135.731193
0
LINE
8
Layer_1
10
121.727937
20
135.731193
11
120.963921
21
134.338824
0
LINE
8
Layer_1
10
120.963921
20
134.338824
11
120.006369
21
133.079676
0
LINE
8
Layer_1
10
120.006369
20
133.079676
11
118.890840
21
131.601598
0
LINE
8
Layer_1
10
118.890840
20
131.601598
11
118.073001
21
130.625310
0
LINE
8
Layer_1
10
118.073001
20
130.625310
11
117.595834
21
130.489598
0
LINE
8
Layer_1
10
117.595834
20
130.489598
11
116.415603
21
130.424080
0
LINE
8
Layer_1
10
112.800951
20
109.956636
11
112.800952
21
109.956876
0
LINE
8
Layer_1
10
114.795625
20
130.048360
11
114.206966
21
129.031002
0
LINE
8
Layer_1
10
116.415603
20
130.424080
11
115.020535
21
130.379980
0
LINE
8
Layer_1
10
115.020535
20
130.379980
11
114.795625
21
130.048360
0
LINE
8
Layer_1
10
115.996504
20
124.587937
11
118.458741
21
120.264173
0
LINE
8
Layer_1
10
118.458741
20
120.264173
11
118.979680
21
119.463694
0
LINE
8
Layer_1
10
114.206966
20
129.031002
11
113.843215
21
128.345263
0
LINE
8
Layer_1
10
113.843215
20
128.345263
11
115.996504
21
124.587937
0
LINE
8
Layer_1
10
124.011854
20
119.276934
11
129.180827
21
119.366134
0
LINE
8
Layer_1
10
118.979680
20
119.463694
11
119.191690
21
119.229634
0
LINE
8
Layer_1
10
119.191690
20
119.229634
11
124.011854
21
119.276934
0
LINE
8
Layer_1
10
96.191885
20
119.475704
11
96.668569
21
119.798229
0
LINE
8
Layer_1
10
96.668569
20
119.798229
11
97.066895
21
120.403423
0
LINE
8
Layer_1
10
97.066895
20
120.403423
11
100.193311
21
125.988426
0
LINE
8
Layer_1
10
100.193311
20
125.988426
11
101.475455
21
128.489422
0
LINE
8
Layer_1
10
101.475455
20
128.489422
11
100.051869
21
131.131814
0
LINE
8
Layer_1
10
100.051869
20
131.131814
11
98.564921
21
133.559226
0
LINE
8
Layer_1
10
98.564921
20
133.559226
11
98.091477
21
133.071747
0
LINE
8
Layer_1
10
98.091477
20
133.071747
11
97.346605
21
132.208622
0
LINE
8
Layer_1
10
97.346605
20
132.208622
11
96.551126
21
131.522582
0
LINE
8
Layer_1
10
96.551126
20
131.522582
11
95.720002
21
131.024521
0
LINE
8
Layer_1
10
95.720002
20
131.024521
11
94.868198
21
130.725330
0
LINE
8
Layer_1
10
94.868198
20
130.725330
11
93.262932
21
130.544108
0
LINE
8
Layer_1
10
93.262932
20
130.544108
11
91.785497
21
130.583080
0
LINE
8
Layer_1
10
91.785497
20
130.583080
11
90.909085
21
130.877251
0
LINE
8
Layer_1
10
90.909085
20
130.877251
11
89.882503
21
131.404725
0
LINE
8
Layer_1
10
89.882503
20
131.404725
11
88.912221
21
132.044783
0
LINE
8
Layer_1
10
88.912221
20
132.044783
11
88.204708
21
132.676707
0
LINE
8
Layer_1
10
88.204708
20
132.676707
11
87.673987
21
133.135336
0
LINE
8
Layer_1
10
87.673987
20
133.135336
11
86.841522
21
132.841077
0
LINE
8
Layer_1
10
86.841522
20
132.841077
11
85.362682
21
132.308608
0
LINE
8
Layer_1
10
85.362682
20
132.308608
11
83.899353
21
131.964808
0
LINE
8
Layer_1
10
82.063120
20
130.168050
11
81.061876
21
128.294773
0
LINE
8
Layer_1
10
81.061876
20
128.294773
11
83.403269
21
123.959415
0
LINE
8
Layer_1
10
83.403269
20
123.959415
11
86.003128
21
119.507014
0
LINE
8
Layer_1
10
83.899353
20
131.964808
11
83.061212
21
131.821248
0
LINE
8
Layer_1
10
83.061212
20
131.821248
11
82.063120
21
130.168050
0
LINE
8
Layer_1
10
91.013913
20
119.318254
11
95.176894
21
119.343314
0
LINE
8
Layer_1
10
95.176894
20
119.343314
11
96.191885
21
119.475834
0
LINE
8
Layer_1
10
86.003128
20
119.507014
11
86.175059
21
119.316254
0
LINE
8
Layer_1
10
86.175059
20
119.316254
11
91.013913
21
119.318254
0
LINE
8
Layer_1
10
104.154234
20
129.032592
11
104.257643
21
129.164936
0
LINE
8
Layer_1
10
104.257643
20
129.164936
11
104.275735
21
129.539926
0
LINE
8
Layer_1
10
104.275735
20
129.539926
11
104.029725
21
131.547978
0
LINE
8
Layer_1
10
104.029725
20
131.547978
11
103.526927
21
134.801063
0
LINE
8
Layer_1
10
103.526927
20
134.801063
11
103.026401
21
137.119972
0
LINE
8
Layer_1
10
103.026401
20
137.119972
11
102.287011
21
140.447577
0
LINE
8
Layer_1
10
102.287011
20
140.447577
11
101.914729
21
142.037195
0
LINE
8
Layer_1
10
101.914729
20
142.037195
11
100.992460
21
139.303049
0
LINE
8
Layer_1
10
100.992460
20
139.303049
11
99.732885
21
135.688183
0
LINE
8
Layer_1
10
99.732885
20
135.688183
11
99.343823
21
134.586045
0
LINE
8
Layer_1
10
99.343823
20
134.586045
11
100.615102
21
132.160368
0
LINE
8
Layer_1
10
100.615102
20
132.160368
11
101.995739
21
129.678851
0
LINE
8
Layer_1
10
101.995739
20
129.678851
11
102.355907
21
129.191361
0
LINE
8
Layer_1
10
102.355907
20
129.191361
11
102.681858
21
129.016114
0
LINE
8
Layer_1
10
102.681858
20
129.016114
11
103.312942
21
128.981132
0
LINE
8
Layer_1
10
103.312942
20
128.981132
11
104.154234
21
129.032632
0
LINE
8
Layer_1
10
96.191885
20
119.475834
11
96.191885
21
119.475704
0
LINE
8
Layer_1
10
112.953062
20
129.070692
11
113.455190
21
129.732689
0
LINE
8
Layer_1
10
113.455190
20
129.732689
11
113.744488
21
130.417180
0
LINE
8
Layer_1
10
113.744488
20
130.417180
11
112.787532
21
130.549700
0
LINE
8
Layer_1
10
112.787532
20
130.549700
11
110.784916
21
130.821041
0
LINE
8
Layer_1
10
110.784916
20
130.821041
11
108.965819
21
131.360736
0
LINE
8
Layer_1
10
108.965819
20
131.360736
11
107.348045
21
132.161840
0
LINE
8
Layer_1
10
107.348045
20
132.161840
11
105.949400
21
133.217406
0
LINE
8
Layer_1
10
105.949400
20
133.217406
11
104.787590
21
134.152695
0
LINE
8
Layer_1
10
104.787590
20
134.152695
11
105.060259
21
131.495838
0
LINE
8
Layer_1
10
105.060259
20
131.495838
11
105.305692
21
129.456891
0
LINE
8
Layer_1
10
105.305692
20
129.456891
11
105.407427
21
129.082882
0
LINE
8
Layer_1
10
105.407427
20
129.082882
11
109.121310
21
128.975749
0
LINE
8
Layer_1
10
109.121310
20
128.975749
11
112.953062
21
129.070681
0
LINE
8
Layer_1
10
117.683332
20
131.664558
11
119.128635
21
133.476766
0
LINE
8
Layer_1
10
119.128635
20
133.476766
11
120.575078
21
135.636343
0
LINE
8
Layer_1
10
120.575078
20
135.636343
11
121.679449
21
138.172781
0
LINE
8
Layer_1
10
121.679449
20
138.172781
11
121.923040
21
139.063332
0
LINE
8
Layer_1
10
121.923040
20
139.063332
11
121.861007
21
139.409029
0
LINE
8
Layer_1
10
121.861007
20
139.409029
11
120.425718
21
138.214200
0
LINE
8
Layer_1
10
120.425718
20
138.214200
11
118.413393
21
136.504513
0
LINE
8
Layer_1
10
118.413393
20
136.504513
11
116.327043
21
135.152944
0
LINE
8
Layer_1
10
116.327043
20
135.152944
11
112.596737
21
133.572006
0
LINE
8
Layer_1
10
112.596737
20
133.572006
11
109.457913
21
132.831647
0
LINE
8
Layer_1
10
109.457913
20
132.831647
11
108.871549
21
132.665935
0
LINE
8
Layer_1
10
108.871549
20
132.665935
11
108.799100
21
132.546479
0
LINE
8
Layer_1
10
108.799100
20
132.546479
11
108.892368
21
132.416267
0
LINE
8
Layer_1
10
108.892368
20
132.416267
11
111.028315
21
131.735608
0
LINE
8
Layer_1
10
111.028315
20
131.735608
11
112.887447
21
131.543361
0
LINE
8
Layer_1
10
112.887447
20
131.543361
11
115.917834
21
131.452979
0
LINE
8
Layer_1
10
94.835412
20
131.734858
11
95.682026
21
132.103278
0
LINE
8
Layer_1
10
95.682026
20
132.103278
11
96.580901
21
132.873907
0
LINE
8
Layer_1
10
96.580901
20
132.873907
11
97.761213
21
134.264271
0
LINE
8
Layer_1
10
97.761213
20
134.264271
11
98.742389
21
135.996937
0
LINE
8
Layer_1
10
98.742389
20
135.996937
11
99.679112
21
138.405934
0
LINE
8
Layer_1
10
99.679112
20
138.405934
11
100.726061
21
141.825296
0
LINE
8
Layer_1
10
100.726061
20
141.825296
11
101.914570
21
145.428421
0
LINE
8
Layer_1
10
101.914570
20
145.428421
11
102.941916
21
148.130767
0
LINE
8
Layer_1
10
102.941916
20
148.130767
11
103.500962
21
149.529636
0
LINE
8
Layer_1
10
103.500962
20
149.529636
11
103.819573
21
150.757884
0
LINE
8
Layer_1
10
103.819573
20
150.757884
11
103.074156
21
150.206657
0
LINE
8
Layer_1
10
103.074156
20
150.206657
11
101.967129
21
149.111636
0
LINE
8
Layer_1
10
101.967129
20
149.111636
11
98.526761
21
144.495852
0
LINE
8
Layer_1
10
98.526761
20
144.495852
11
95.602341
21
140.462480
0
LINE
8
Layer_1
10
95.602341
20
140.462480
11
93.382462
21
137.840650
0
LINE
8
Layer_1
10
93.382462
20
137.840650
11
91.419352
21
135.915513
0
LINE
8
Layer_1
10
91.419352
20
135.915513
11
89.536686
21
134.333995
0
LINE
8
Layer_1
10
89.536686
20
134.333995
11
88.702654
21
133.609376
0
LINE
8
Layer_1
10
88.702654
20
133.609376
11
88.880494
21
133.245861
0
LINE
8
Layer_1
10
88.880494
20
133.245861
11
89.671118
21
132.664607
0
LINE
8
Layer_1
10
89.671118
20
132.664607
11
91.613786
21
131.637548
0
LINE
8
Layer_1
10
91.613786
20
131.637548
11
93.132724
21
131.558590
0
LINE
8
Layer_1
10
93.132724
20
131.558590
11
94.835412
21
131.734848
0
LINE
8
Layer_1
10
115.917834
20
131.452979
11
117.416162
21
131.439779
0
LINE
8
Layer_1
10
117.416162
20
131.439779
11
117.683332
21
131.664558
0
LINE
8
Layer_1
10
84.008392
20
133.014266
11
86.413821
21
133.783631
0
LINE
8
Layer_1
10
86.413821
20
133.783631
11
88.816060
21
135.059304
0
LINE
8
Layer_1
10
88.816060
20
135.059304
11
89.801441
21
135.808919
0
LINE
8
Layer_1
10
89.801441
20
135.808919
11
91.191171
21
137.148341
0
LINE
8
Layer_1
10
91.191171
20
137.148341
11
94.302527
21
140.554733
0
LINE
8
Layer_1
10
94.302527
20
140.554733
11
97.097166
21
144.368682
0
LINE
8
Layer_1
10
97.097166
20
144.368682
11
100.180491
21
148.634347
0
LINE
8
Layer_1
10
100.180491
20
148.634347
11
101.493744
21
150.060829
0
LINE
8
Layer_1
10
101.493744
20
150.060829
11
103.101422
21
151.550733
0
LINE
8
Layer_1
10
103.101422
20
151.550733
11
103.648842
21
152.204482
0
LINE
8
Layer_1
10
103.648842
20
152.204482
11
100.893506
21
152.036953
0
LINE
8
Layer_1
10
100.893506
20
152.036953
11
96.149495
21
151.701703
0
LINE
8
Layer_1
10
96.149495
20
151.701703
11
93.351768
21
151.539143
0
LINE
8
Layer_1
10
93.351768
20
151.539143
11
90.596432
21
151.280154
0
LINE
8
Layer_1
10
90.596432
20
151.280154
11
85.473546
21
150.638469
0
LINE
8
Layer_1
10
85.473546
20
150.638469
11
80.649121
21
149.401616
0
LINE
8
Layer_1
10
80.649121
20
149.401616
11
77.629006
21
148.312359
0
LINE
8
Layer_1
10
77.629006
20
148.312359
11
74.922195
21
146.882909
0
LINE
8
Layer_1
10
74.922195
20
146.882909
11
73.297945
21
145.801534
0
LINE
8
Layer_1
10
73.297945
20
145.801534
11
72.039270
21
144.719596
0
LINE
8
Layer_1
10
72.039270
20
144.719596
11
71.031220
21
143.521465
0
LINE
8
Layer_1
10
71.031220
20
143.521465
11
70.158845
21
142.091515
0
LINE
8
Layer_1
10
70.158845
20
142.091515
11
69.358846
21
140.042464
0
LINE
8
Layer_1
10
69.358846
20
140.042464
11
69.044440
21
137.612481
0
LINE
8
Layer_1
10
69.044440
20
137.612481
11
69.032174
21
136.543765
0
LINE
8
Layer_1
10
69.032174
20
136.543765
11
69.224079
21
135.984043
0
LINE
8
Layer_1
10
69.224079
20
135.984043
11
69.535113
21
135.508466
0
LINE
8
Layer_1
10
69.535113
20
135.508466
11
69.974817
21
135.115149
0
LINE
8
Layer_1
10
69.974817
20
135.115149
11
71.351463
21
134.497565
0
LINE
8
Layer_1
10
71.351463
20
134.497565
11
72.220617
21
134.342276
0
LINE
8
Layer_1
10
72.220617
20
134.342276
11
74.318748
21
134.310325
0
LINE
8
Layer_1
10
74.318748
20
134.310325
11
77.224330
21
134.199293
0
LINE
8
Layer_1
10
77.224330
20
134.199293
11
79.216530
21
133.654566
0
LINE
8
Layer_1
10
79.216530
20
133.654566
11
81.736963
21
132.937477
0
LINE
8
Layer_1
10
81.736963
20
132.937477
11
82.848087
21
132.899114
0
LINE
8
Layer_1
10
82.848087
20
132.899114
11
84.008392
21
133.014277
0
LINE
8
Layer_1
10
108.998715
20
137.954640
11
111.512704
21
138.677389
0
LINE
8
Layer_1
10
111.512704
20
138.677389
11
113.858531
21
139.632007
0
LINE
8
Layer_1
10
113.858531
20
139.632007
11
115.893509
21
140.750955
0
LINE
8
Layer_1
10
115.893509
20
140.750955
11
117.474952
21
141.966695
0
LINE
8
Layer_1
10
117.474952
20
141.966695
11
118.374099
21
142.956056
0
LINE
8
Layer_1
10
118.374099
20
142.956056
11
119.053466
21
144.015033
0
LINE
8
Layer_1
10
119.053466
20
144.015033
11
119.525235
21
145.167032
0
LINE
8
Layer_1
10
119.525235
20
145.167032
11
119.801589
21
146.435460
0
LINE
8
Layer_1
10
119.801589
20
146.435460
11
119.771389
21
147.357559
0
LINE
8
Layer_1
10
119.771389
20
147.357559
11
117.557382
21
149.547366
0
LINE
8
Layer_1
10
117.557382
20
149.547366
11
117.276258
21
149.596860
0
LINE
8
Layer_1
10
117.276258
20
149.596860
11
116.960253
21
148.948337
0
LINE
8
Layer_1
10
116.960253
20
148.948337
11
116.451300
21
147.985111
0
LINE
8
Layer_1
10
116.451300
20
147.985111
11
115.745858
21
147.050176
0
LINE
8
Layer_1
10
115.745858
20
147.050176
11
114.878421
21
146.183053
0
LINE
8
Layer_1
10
114.878421
20
146.183053
11
113.883485
21
145.423261
0
LINE
8
Layer_1
10
113.883485
20
145.423261
11
111.544747
21
144.166136
0
LINE
8
Layer_1
10
111.544747
20
144.166136
11
108.889916
21
142.933394
0
LINE
8
Layer_1
10
108.889916
20
142.933394
11
107.224164
21
142.396212
0
LINE
8
Layer_1
10
107.224164
20
142.396212
11
105.602441
21
142.265305
0
LINE
8
Layer_1
10
105.602441
20
142.265305
11
103.797655
21
142.431735
0
LINE
8
Layer_1
10
103.797655
20
142.431735
11
103.300363
21
142.547034
0
LINE
8
Layer_1
10
103.300363
20
142.547034
11
103.044781
21
142.505468
0
LINE
8
Layer_1
10
103.044781
20
142.505468
11
102.971521
21
142.254141
0
LINE
8
Layer_1
10
102.971521
20
142.254141
11
103.021192
21
141.740156
0
LINE
8
Layer_1
10
103.021192
20
141.740156
11
103.741068
21
138.285010
0
LINE
8
Layer_1
10
103.741068
20
138.285010
11
103.934946
21
138.113366
0
LINE
8
Layer_1
10
103.934946
20
138.113366
11
104.924204
21
137.880170
0
LINE
8
Layer_1
10
104.924204
20
137.880170
11
106.917008
21
137.737083
0
LINE
8
Layer_1
10
106.917008
20
137.737083
11
108.998735
21
137.954670
0
LINE
8
Layer_1
10
125.064333
20
137.967040
11
126.444191
21
138.074220
0
LINE
8
Layer_1
10
126.444191
20
138.074220
11
126.580993
21
138.474382
0
LINE
8
Layer_1
10
126.580993
20
138.474382
11
126.687450
21
139.892158
0
LINE
8
Layer_1
10
126.687450
20
139.892158
11
126.706450
21
141.776496
0
LINE
8
Layer_1
10
126.706450
20
141.776496
11
124.644123
21
143.426893
0
LINE
8
Layer_1
10
124.644123
20
143.426893
11
122.710822
21
144.838816
0
LINE
8
Layer_1
10
122.710822
20
144.838816
11
122.219536
21
145.075451
0
LINE
8
Layer_1
10
122.219536
20
145.075451
11
122.391346
21
144.404142
0
LINE
8
Layer_1
10
122.391346
20
144.404142
11
122.753388
21
143.026889
0
LINE
8
Layer_1
10
122.753388
20
143.026889
11
122.967808
21
141.531912
0
LINE
8
Layer_1
10
122.967808
20
141.531912
11
123.020456
21
140.075563
0
LINE
8
Layer_1
10
123.020456
20
140.075563
11
122.897185
21
138.814189
0
LINE
8
Layer_1
10
122.897185
20
138.814189
11
122.837748
21
137.997225
0
LINE
8
Layer_1
10
122.837748
20
137.997225
11
123.023500
21
137.901419
0
LINE
8
Layer_1
10
123.023500
20
137.901419
11
123.406135
21
137.920600
0
LINE
8
Layer_1
10
123.406135
20
137.920600
11
125.064333
21
137.967000
0
LINE
8
Layer_1
10
129.354097
20
138.243310
11
131.077425
21
141.231796
0
LINE
8
Layer_1
10
131.077425
20
141.231796
11
133.560152
21
145.676421
0
LINE
8
Layer_1
10
133.560152
20
145.676421
11
134.500321
21
147.499188
0
LINE
8
Layer_1
10
134.500321
20
147.499188
11
133.769528
21
148.994771
0
LINE
8
Layer_1
10
133.769528
20
148.994771
11
132.941933
21
150.345605
0
LINE
8
Layer_1
10
132.941933
20
150.345605
11
132.503793
21
149.912205
0
LINE
8
Layer_1
10
132.503793
20
149.912205
11
131.533259
21
148.988345
0
LINE
8
Layer_1
10
131.533259
20
148.988345
11
130.401914
21
148.329039
0
LINE
8
Layer_1
10
130.401914
20
148.329039
11
129.108748
21
147.933846
0
LINE
8
Layer_1
10
129.108748
20
147.933846
11
127.652749
21
147.802328
0
LINE
8
Layer_1
10
127.652749
20
147.802328
11
125.259327
21
148.057421
0
LINE
8
Layer_1
10
125.259327
20
148.057421
11
122.459526
21
148.909086
0
LINE
8
Layer_1
10
122.459526
20
148.909086
11
118.083491
21
150.408275
0
LINE
8
Layer_1
10
118.083491
20
150.408275
11
118.838990
21
149.646376
0
LINE
8
Layer_1
10
118.838990
20
149.646376
11
120.467478
21
148.097378
0
LINE
8
Layer_1
10
120.467478
20
148.097378
11
122.146859
21
146.586460
0
LINE
8
Layer_1
10
122.146859
20
146.586460
11
125.415172
21
144.085603
0
LINE
8
Layer_1
10
125.415172
20
144.085603
11
127.669969
21
142.325895
0
LINE
8
Layer_1
10
127.669969
20
142.325895
11
127.709169
21
140.121158
0
LINE
8
Layer_1
10
128.428108
20
138.052560
11
129.087880
21
138.083866
0
LINE
8
Layer_1
10
129.087880
20
138.083866
11
129.354157
21
138.243310
0
LINE
8
Layer_1
10
127.709169
20
140.121158
11
127.672169
21
138.052560
0
LINE
8
Layer_1
10
127.672169
20
138.052560
11
128.428108
21
138.052560
0
LINE
8
Layer_1
10
129.170197
20
148.988887
11
130.367253
21
149.467808
0
LINE
8
Layer_1
10
130.367253
20
149.467808
11
131.481614
21
150.301285
0
LINE
8
Layer_1
10
131.481614
20
150.301285
11
132.169432
21
151.054633
0
LINE
8
Layer_1
10
132.169432
20
151.054633
11
132.697955
21
151.894197
0
LINE
8
Layer_1
10
132.697955
20
151.894197
11
133.068113
21
152.821801
0
LINE
8
Layer_1
10
133.068113
20
152.821801
11
133.280832
21
153.839270
0
LINE
8
Layer_1
10
133.280832
20
153.839270
11
133.318245
21
155.039993
0
LINE
8
Layer_1
10
133.318245
20
155.039993
11
133.191032
21
155.867778
0
LINE
8
Layer_1
10
133.191032
20
155.867778
11
132.841643
21
155.865778
0
LINE
8
Layer_1
10
132.841643
20
155.865778
11
130.545326
21
155.040816
0
LINE
8
Layer_1
10
130.545326
20
155.040816
11
128.280928
21
154.573260
0
LINE
8
Layer_1
10
128.280928
20
154.573260
11
126.704278
21
154.415855
0
LINE
8
Layer_1
10
126.704278
20
154.415855
11
123.702824
21
154.379350
0
LINE
8
Layer_1
10
123.702824
20
154.379350
11
117.217182
21
154.448350
0
LINE
8
Layer_1
10
117.217182
20
154.448350
11
112.332042
21
154.401396
0
LINE
8
Layer_1
10
112.332042
20
154.401396
11
110.899330
21
154.248003
0
LINE
8
Layer_1
10
110.899330
20
154.248003
11
110.331498
21
154.019920
0
LINE
8
Layer_1
10
110.331498
20
154.019920
11
111.031292
21
153.685209
0
LINE
8
Layer_1
10
111.031292
20
153.685209
11
112.723867
21
153.192691
0
LINE
8
Layer_1
10
112.723867
20
153.192691
11
116.578973
21
151.996923
0
LINE
8
Layer_1
10
116.578973
20
151.996923
11
122.529916
21
149.932415
0
LINE
8
Layer_1
10
122.529916
20
149.932415
11
125.181766
21
149.078236
0
LINE
8
Layer_1
10
125.181766
20
149.078236
11
127.525539
21
148.829547
0
LINE
8
Layer_1
10
127.525539
20
148.829547
11
129.170157
21
148.988526
0
LINE
8
Layer_1
10
85.797545
20
151.737773
11
88.943229
21
152.078602
0
LINE
8
Layer_1
10
88.943229
20
152.078602
11
92.758311
21
152.463742
0
LINE
8
Layer_1
10
92.758311
20
152.463742
11
96.488613
21
152.690142
0
LINE
8
Layer_1
10
96.488613
20
152.690142
11
98.801887
21
152.808665
0
LINE
8
Layer_1
10
98.801887
20
152.808665
11
99.059109
21
152.890781
0
LINE
8
Layer_1
10
99.059109
20
152.890781
11
98.692884
21
152.984932
0
LINE
8
Layer_1
10
98.692884
20
152.984932
11
97.251631
21
153.143221
0
LINE
8
Layer_1
10
97.251631
20
153.143221
11
94.697715
21
153.565644
0
LINE
8
Layer_1
10
94.697715
20
153.565644
11
92.987817
21
154.265260
0
LINE
8
Layer_1
10
92.987817
20
154.265260
11
91.137904
21
156.004638
0
LINE
8
Layer_1
10
129.170157
20
148.988526
11
129.170197
21
148.988887
0
LINE
8
Layer_1
10
88.509506
20
156.534517
11
86.174962
21
156.409957
0
LINE
8
Layer_1
10
86.174962
20
156.409957
11
84.733578
21
153.906882
0
LINE
8
Layer_1
10
84.733578
20
153.906882
11
83.432556
21
151.340993
0
LINE
8
Layer_1
10
83.432556
20
151.340993
11
83.576573
21
151.275994
0
LINE
8
Layer_1
10
83.576573
20
151.275994
11
84.207927
21
151.412893
0
LINE
8
Layer_1
10
84.207927
20
151.412893
11
85.797545
21
151.737763
0
LINE
8
Layer_1
10
91.137904
20
156.004638
11
90.666220
21
156.534517
0
LINE
8
Layer_1
10
90.666220
20
156.534517
11
88.509506
21
156.534517
0
LINE
8
Layer_1
10
100.388476
20
153.928020
11
101.291269
21
154.973303
0
LINE
8
Layer_1
10
101.291269
20
154.973303
11
102.380796
21
155.867828
0
LINE
8
Layer_1
10
102.380796
20
155.867828
11
104.914347
21
157.292722
0
LINE
8
Layer_1
10
104.914347
20
157.292722
11
107.406584
21
158.372595
0
LINE
8
Layer_1
10
107.406584
20
158.372595
11
108.158533
21
158.561806
0
LINE
8
Layer_1
10
108.158533
20
158.561806
11
109.276828
21
158.619024
0
LINE
8
Layer_1
10
109.276828
20
158.619024
11
110.545979
21
158.694524
0
LINE
8
Layer_1
10
110.545979
20
158.694524
11
110.379090
21
159.153207
0
LINE
8
Layer_1
10
110.379090
20
159.153207
11
109.776101
21
160.052913
0
LINE
8
Layer_1
10
109.776101
20
160.052913
11
109.232025
21
160.658426
0
LINE
8
Layer_1
10
109.232025
20
160.658426
11
108.625004
21
161.109779
0
LINE
8
Layer_1
10
108.625004
20
161.109779
11
107.951146
21
161.407308
0
LINE
8
Layer_1
10
107.951146
20
161.407308
11
107.206558
21
161.551349
0
LINE
8
Layer_1
10
107.206558
20
161.551349
11
105.489628
21
161.380311
0
LINE
8
Layer_1
10
105.489628
20
161.380311
11
103.443079
21
160.599352
0
LINE
8
Layer_1
10
103.443079
20
160.599352
11
101.967783
21
159.808171
0
LINE
8
Layer_1
10
101.967783
20
159.808171
11
100.847754
21
159.039589
0
LINE
8
Layer_1
10
100.847754
20
159.039589
11
100.037732
21
158.257237
0
LINE
8
Layer_1
10
100.037732
20
158.257237
11
99.492457
21
157.424746
0
LINE
8
Layer_1
10
99.492457
20
157.424746
11
99.146867
21
156.307476
0
LINE
8
Layer_1
10
99.146867
20
156.307476
11
99.274581
21
155.099809
0
LINE
8
Layer_1
10
99.274581
20
155.099809
11
99.649880
21
153.975730
0
LINE
8
Layer_1
10
99.649880
20
153.975730
11
99.981082
21
153.484681
0
LINE
8
Layer_1
10
99.981082
20
153.484681
11
100.388476
21
153.928070
0
LINE
8
Layer_1
10
98.522407
20
154.157530
11
98.406457
21
154.669359
0
LINE
8
Layer_1
10
98.406457
20
154.669359
11
98.230460
21
155.709208
0
LINE
8
Layer_1
10
98.230460
20
155.709208
11
98.043625
21
156.493417
0
LINE
8
Layer_1
10
98.043625
20
156.493417
11
97.414904
21
156.596237
0
LINE
8
Layer_1
10
97.414904
20
156.596237
11
95.046308
21
156.619287
0
LINE
8
Layer_1
10
95.046308
20
156.619287
11
92.123362
21
156.535987
0
LINE
8
Layer_1
10
92.123362
20
156.535987
11
92.733010
21
155.785638
0
LINE
8
Layer_1
10
92.733010
20
155.785638
11
93.538665
21
155.092906
0
LINE
8
Layer_1
10
93.538665
20
155.092906
11
94.418292
21
154.628083
0
LINE
8
Layer_1
10
94.418292
20
154.628083
11
95.521348
21
154.333958
0
LINE
8
Layer_1
10
95.521348
20
154.333958
11
96.997292
21
154.153320
0
LINE
8
Layer_1
10
96.997292
20
154.153320
11
98.171251
21
154.030340
0
LINE
8
Layer_1
10
98.171251
20
154.030340
11
98.379595
21
154.021791
0
LINE
8
Layer_1
10
98.379595
20
154.021791
11
98.522407
21
154.157550
0
LINE
8
Layer_1
10
110.350078
20
155.127789
11
111.734634
21
155.319902
0
LINE
8
Layer_1
10
111.734634
20
155.319902
11
113.787098
21
155.417465
0
LINE
8
Layer_1
10
113.787098
20
155.417465
11
120.683328
21
155.345528
0
LINE
8
Layer_1
10
120.683328
20
155.345528
11
126.257166
21
155.384693
0
LINE
8
Layer_1
10
126.257166
20
155.384693
11
128.299135
21
155.593489
0
LINE
8
Layer_1
10
128.299135
20
155.593489
11
130.137926
21
155.947118
0
LINE
8
Layer_1
10
130.137926
20
155.947118
11
132.376226
21
156.682194
0
LINE
8
Layer_1
10
132.376226
20
156.682194
11
134.944690
21
158.192635
0
LINE
8
Layer_1
10
134.944690
20
158.192635
11
136.302998
21
159.181299
0
LINE
8
Layer_1
10
136.302998
20
159.181299
11
137.261551
21
160.193900
0
LINE
8
Layer_1
10
137.261551
20
160.193900
11
137.985473
21
161.453426
0
LINE
8
Layer_1
10
137.985473
20
161.453426
11
138.639885
21
163.182869
0
LINE
8
Layer_1
10
138.639885
20
163.182869
11
139.681392
21
165.730539
0
LINE
8
Layer_1
10
139.681392
20
165.730539
11
140.285694
21
166.643467
0
LINE
8
Layer_1
10
140.285694
20
166.643467
11
141.064102
21
167.528023
0
LINE
8
Layer_1
10
141.064102
20
167.528023
11
142.305436
21
169.116031
0
LINE
8
Layer_1
10
142.305436
20
169.116031
11
143.032600
21
170.692639
0
LINE
8
Layer_1
10
143.032600
20
170.692639
11
143.143520
21
171.446135
0
LINE
8
Layer_1
10
143.143520
20
171.446135
11
143.084040
21
172.184873
0
LINE
8
Layer_1
10
143.084040
20
172.184873
11
142.865290
21
172.852581
0
LINE
8
Layer_1
10
142.865290
20
172.852581
11
142.498400
21
173.392986
0
LINE
8
Layer_1
10
142.498400
20
173.392986
11
141.536216
21
174.146823
0
LINE
8
Layer_1
10
141.536216
20
174.146823
11
140.204277
21
174.831249
0
LINE
8
Layer_1
10
140.204277
20
174.831249
11
138.626922
21
175.393005
0
LINE
8
Layer_1
10
138.626922
20
175.393005
11
136.928487
21
175.778833
0
LINE
8
Layer_1
10
136.928487
20
175.778833
11
134.594167
21
176.005116
0
LINE
8
Layer_1
10
134.594167
20
176.005116
11
132.580913
21
175.956713
0
LINE
8
Layer_1
10
132.580913
20
175.956713
11
130.323380
21
175.388084
0
LINE
8
Layer_1
10
130.323380
20
175.388084
11
128.388248
21
174.432584
0
LINE
8
Layer_1
10
128.388248
20
174.432584
11
123.514912
21
170.381187
0
LINE
8
Layer_1
10
123.514912
20
170.381187
11
118.854260
21
166.003915
0
LINE
8
Layer_1
10
118.854260
20
166.003915
11
115.845254
21
162.527950
0
LINE
8
Layer_1
10
115.845254
20
162.527950
11
112.262223
21
158.417975
0
LINE
8
Layer_1
10
112.262223
20
158.417975
11
109.358457
21
155.143239
0
LINE
8
Layer_1
10
109.465629
20
154.948099
11
110.350078
21
155.127749
0
LINE
8
Layer_1
10
109.358457
20
155.143239
11
109.174637
21
154.896499
0
LINE
8
Layer_1
10
109.174637
20
154.896499
11
109.465629
21
154.948099
0
LINE
8
Layer_1
10
89.706246
20
157.678316
11
89.134370
21
158.380852
0
LINE
8
Layer_1
10
89.134370
20
158.380852
11
88.214590
21
159.103174
0
LINE
8
Layer_1
10
88.214590
20
159.103174
11
87.070065
21
159.459133
0
LINE
8
Layer_1
10
87.070065
20
159.459133
11
85.570008
21
159.778840
0
LINE
8
Layer_1
10
85.570008
20
159.778840
11
85.114809
21
160.006403
0
LINE
8
Layer_1
10
85.114809
20
160.006403
11
85.023187
21
160.340553
0
LINE
8
Layer_1
10
85.023187
20
160.340553
11
85.228240
21
160.612132
0
LINE
8
Layer_1
10
85.228240
20
160.612132
11
86.812784
21
160.491554
0
LINE
8
Layer_1
10
86.812784
20
160.491554
11
88.707639
21
159.958583
0
LINE
8
Layer_1
10
88.707639
20
159.958583
11
89.709586
21
159.162215
0
LINE
8
Layer_1
10
89.709586
20
159.162215
11
90.823992
21
157.975765
0
LINE
8
Layer_1
10
94.168253
20
157.623456
11
97.283846
21
157.723496
0
LINE
8
Layer_1
10
97.283846
20
157.723496
11
97.208287
21
158.349095
0
LINE
8
Layer_1
10
97.208287
20
158.349095
11
97.106066
21
159.393013
0
LINE
8
Layer_1
10
97.106066
20
159.393013
11
97.369747
21
160.396012
0
LINE
8
Layer_1
10
97.369747
20
160.396012
11
97.550565
21
160.939472
0
LINE
8
Layer_1
10
97.550565
20
160.939472
11
97.106038
21
161.153011
0
LINE
8
Layer_1
10
97.106038
20
161.153011
11
94.844581
21
162.251020
0
LINE
8
Layer_1
10
94.844581
20
162.251020
11
92.675965
21
163.697358
0
LINE
8
Layer_1
10
92.675965
20
163.697358
11
91.486621
21
164.564077
0
LINE
8
Layer_1
10
91.486621
20
164.564077
11
90.342129
21
165.239862
0
LINE
8
Layer_1
10
90.342129
20
165.239862
11
89.334802
21
165.601202
0
LINE
8
Layer_1
10
89.334802
20
165.601202
11
88.309925
21
165.681736
0
LINE
8
Layer_1
10
88.309925
20
165.681736
11
87.112781
21
165.515106
0
LINE
8
Layer_1
10
87.112781
20
165.515106
11
85.983806
21
165.336807
0
LINE
8
Layer_1
10
85.983806
20
165.336807
11
85.477749
21
165.397256
0
LINE
8
Layer_1
10
85.477749
20
165.397256
11
85.342535
21
165.707239
0
LINE
8
Layer_1
10
85.342535
20
165.707239
11
85.444109
21
166.014065
0
LINE
8
Layer_1
10
85.444109
20
166.014065
11
86.430969
21
166.406727
0
LINE
8
Layer_1
10
86.430969
20
166.406727
11
87.971473
21
166.680364
0
LINE
8
Layer_1
10
87.971473
20
166.680364
11
89.267498
21
166.603791
0
LINE
8
Layer_1
10
89.267498
20
166.603791
11
90.580881
21
166.237485
0
LINE
8
Layer_1
10
90.580881
20
166.237485
11
91.832529
21
165.527973
0
LINE
8
Layer_1
10
91.832529
20
165.527973
11
93.416099
21
164.389627
0
LINE
8
Layer_1
10
93.416099
20
164.389627
11
95.380606
21
163.097002
0
LINE
8
Layer_1
10
95.380606
20
163.097002
11
97.773406
21
161.968920
0
LINE
8
Layer_1
10
90.823992
20
157.975765
11
91.127265
21
157.594256
0
LINE
8
Layer_1
10
91.127265
20
157.594256
11
94.168253
21
157.623456
0
LINE
8
Layer_1
10
98.705982
20
162.234850
11
99.508265
21
162.983229
0
LINE
8
Layer_1
10
99.508265
20
162.983229
11
100.451521
21
164.376617
0
LINE
8
Layer_1
10
100.451521
20
164.376617
11
101.310538
21
165.927575
0
LINE
8
Layer_1
10
101.310538
20
165.927575
11
101.575391
21
166.542314
0
LINE
8
Layer_1
10
101.575391
20
166.542314
11
99.110958
21
171.018600
0
LINE
8
Layer_1
10
99.110958
20
171.018600
11
96.534901
21
175.384733
0
LINE
8
Layer_1
10
96.534901
20
175.384733
11
91.380149
21
175.487803
0
LINE
8
Layer_1
10
97.773406
20
161.968920
11
98.252790
21
161.777720
0
LINE
8
Layer_1
10
98.252790
20
161.777720
11
98.705982
21
162.234850
0
LINE
8
Layer_1
10
86.130753
20
175.346763
11
83.690075
21
171.243749
0
LINE
8
Layer_1
10
83.690075
20
171.243749
11
81.278913
21
166.997934
0
LINE
8
Layer_1
10
81.278913
20
166.997934
11
81.102994
21
166.528190
0
LINE
8
Layer_1
10
81.102994
20
166.528190
11
81.197935
21
166.343385
0
LINE
8
Layer_1
10
81.197935
20
166.343385
11
85.951741
21
157.912165
0
LINE
8
Layer_1
10
91.380149
20
175.487803
11
86.332140
21
175.549903
0
LINE
8
Layer_1
10
86.332140
20
175.549903
11
86.130753
21
175.346763
0
LINE
8
Layer_1
10
87.933931
20
157.551846
11
89.387981
21
157.574552
0
LINE
8
Layer_1
10
89.387981
20
157.574552
11
89.706247
21
157.678296
0
LINE
8
Layer_1
10
85.951741
20
157.912165
11
86.161615
21
157.551846
0
LINE
8
Layer_1
10
86.161615
20
157.551846
11
87.933931
21
157.551846
0
LINE
8
Layer_1
10
112.020854
20
160.010473
11
112.914204
21
162.169479
0
LINE
8
Layer_1
10
112.914204
20
162.169479
11
113.373508
21
164.267457
0
LINE
8
Layer_1
10
113.373508
20
164.267457
11
113.387191
21
165.259000
0
LINE
8
Layer_1
10
113.387191
20
165.259000
11
113.071215
21
165.735525
0
LINE
8
Layer_1
10
113.071215
20
165.735525
11
109.544985
21
165.942895
0
LINE
8
Layer_1
10
109.544985
20
165.942895
11
106.365559
21
165.968566
0
LINE
8
Layer_1
10
106.365559
20
165.968566
11
106.015757
21
165.811336
0
LINE
8
Layer_1
10
106.015757
20
165.811336
11
105.983928
21
165.473716
0
LINE
8
Layer_1
10
105.983928
20
165.473716
11
106.034315
21
165.239090
0
LINE
8
Layer_1
10
106.034315
20
165.239090
11
106.311033
21
165.160486
0
LINE
8
Layer_1
10
106.311033
20
165.160486
11
107.071470
21
164.894509
0
LINE
8
Layer_1
10
107.071470
20
164.894509
11
107.902248
21
164.210407
0
LINE
8
Layer_1
10
107.902248
20
164.210407
11
108.473096
21
163.555844
0
LINE
8
Layer_1
10
108.473096
20
163.555844
11
108.935937
21
162.722219
0
LINE
8
Layer_1
10
108.935937
20
162.722219
11
109.422581
21
161.854814
0
LINE
8
Layer_1
10
109.422581
20
161.854814
11
110.114568
21
161.064891
0
LINE
8
Layer_1
10
110.114568
20
161.064891
11
111.115590
21
159.812033
0
LINE
8
Layer_1
10
111.115590
20
159.812033
11
111.342012
21
159.450284
0
LINE
8
Layer_1
10
111.342012
20
159.450284
11
111.538870
21
159.356310
0
LINE
8
Layer_1
10
111.538870
20
159.356310
11
112.020854
21
160.010473
0
LINE
8
Layer_1
10
114.674835
20
163.091799
11
114.308001
21
163.559834
0
LINE
8
Layer_1
10
114.308001
20
163.559834
11
114.107214
21
162.879179
0
LINE
8
Layer_1
10
114.107214
20
162.879179
11
113.965470
21
161.976704
0
LINE
8
Layer_1
10
113.965470
20
161.976704
11
114.009128
21
161.915597
0
LINE
8
Layer_1
10
114.009128
20
161.915597
11
114.132114
21
162.010850
0
LINE
8
Layer_1
10
114.132114
20
162.010850
11
114.569526
21
162.498350
0
LINE
8
Layer_1
10
114.569526
20
162.498350
11
114.828035
21
162.824339
0
LINE
8
Layer_1
10
114.828035
20
162.824339
11
114.674835
21
163.091799
0
LINE
8
Layer_1
10
116.096004
20
164.371037
11
117.749212
21
166.242375
0
LINE
8
Layer_1
10
117.749212
20
166.242375
11
119.152760
21
167.777503
0
LINE
8
Layer_1
10
119.152760
20
167.777503
11
123.916274
21
172.100877
0
LINE
8
Layer_1
10
123.916274
20
172.100877
11
125.961331
21
173.809525
0
LINE
8
Layer_1
10
125.961331
20
173.809525
11
127.556169
21
175.122193
0
LINE
8
Layer_1
10
123.656764
20
175.461973
11
120.097832
21
175.479761
0
LINE
8
Layer_1
10
120.097832
20
175.479761
11
119.198180
21
175.377773
0
LINE
8
Layer_1
10
119.198180
20
175.377773
11
116.897973
21
171.718518
0
LINE
8
Layer_1
10
116.897973
20
171.718518
11
114.665366
21
167.894983
0
LINE
8
Layer_1
10
114.665366
20
167.894983
11
114.541444
21
167.454816
0
LINE
8
Layer_1
10
114.541444
20
167.454816
11
114.532626
21
166.509885
0
LINE
8
Layer_1
10
114.532626
20
166.509885
11
114.641016
21
165.195806
0
LINE
8
Layer_1
10
114.641016
20
165.195806
11
115.112209
21
164.333888
0
LINE
8
Layer_1
10
115.112209
20
164.333888
11
115.552554
21
163.829428
0
LINE
8
Layer_1
10
115.552554
20
163.829428
11
116.096004
21
164.371037
0
LINE
8
Layer_1
10
127.556169
20
175.122193
11
127.891119
21
175.413773
0
LINE
8
Layer_1
10
127.891119
20
175.413773
11
123.656764
21
175.461973
0
LINE
8
Layer_1
10
102.507965
20
164.767217
11
103.864439
21
164.988546
0
LINE
8
Layer_1
10
103.864439
20
164.988546
11
104.795590
21
165.128069
0
LINE
8
Layer_1
10
104.795590
20
165.128069
11
104.936896
21
165.318534
0
LINE
8
Layer_1
10
104.936896
20
165.318534
11
104.966574
21
165.652445
0
LINE
8
Layer_1
10
104.445460
20
166.060175
11
103.231643
21
166.111902
0
LINE
8
Layer_1
10
103.231643
20
166.111902
11
102.604913
21
165.966275
0
LINE
8
Layer_1
10
102.604913
20
165.966275
11
101.829729
21
164.699567
0
LINE
8
Layer_1
10
101.829729
20
164.699567
11
101.965849
21
164.598195
0
LINE
8
Layer_1
10
101.965849
20
164.598195
11
102.507965
21
164.767267
0
LINE
8
Layer_1
10
104.966574
20
165.652445
11
104.966574
21
166.005675
0
LINE
8
Layer_1
10
104.966574
20
166.005675
11
104.445460
21
166.060175
0
LINE
8
Layer_1
10
113.076868
20
167.180484
11
113.260979
21
167.624840
0
LINE
8
Layer_1
10
113.260979
20
167.624840
11
113.106628
21
168.869941
0
LINE
8
Layer_1
10
113.106628
20
168.869941
11
113.064990
21
169.901754
0
LINE
8
Layer_1
10
113.064990
20
169.901754
11
113.253131
21
170.975733
0
LINE
8
Layer_1
10
113.253131
20
170.975733
11
113.656972
21
172.041002
0
LINE
8
Layer_1
10
113.656972
20
172.041002
11
114.262436
21
173.046686
0
LINE
8
Layer_1
10
114.262436
20
173.046686
11
114.748253
21
173.520417
0
LINE
8
Layer_1
10
114.748253
20
173.520417
11
115.143545
21
173.444946
0
LINE
8
Layer_1
10
115.143545
20
173.444946
11
115.285664
21
173.060334
0
LINE
8
Layer_1
10
115.285664
20
173.060334
11
114.921525
21
172.283067
0
LINE
8
Layer_1
10
114.921525
20
172.283067
11
114.297480
21
170.976490
0
LINE
8
Layer_1
10
114.297480
20
170.976490
11
114.092409
21
169.887300
0
LINE
8
Layer_1
10
114.092409
20
169.887300
11
114.193286
21
169.293841
0
LINE
8
Layer_1
10
114.193286
20
169.293841
11
116.159675
21
172.445831
0
LINE
8
Layer_1
10
116.159675
20
172.445831
11
118.022631
21
175.772833
0
LINE
8
Layer_1
10
118.022631
20
175.772833
11
113.048536
21
184.859501
0
LINE
8
Layer_1
10
113.048536
20
184.859501
11
112.115141
21
184.980141
0
LINE
8
Layer_1
10
112.115141
20
184.980141
11
107.911291
21
185.040241
0
LINE
8
Layer_1
10
107.911291
20
185.040241
11
102.719053
21
185.020141
0
LINE
8
Layer_1
10
102.719053
20
185.020141
11
101.751599
21
183.525313
0
LINE
8
Layer_1
10
101.751599
20
183.525313
11
99.305031
21
179.190528
0
LINE
8
Layer_1
10
97.692314
20
175.841733
11
97.944965
21
175.092216
0
LINE
8
Layer_1
10
97.944965
20
175.092216
11
99.005887
21
173.193716
0
LINE
8
Layer_1
10
99.005887
20
173.193716
11
101.358383
21
169.104491
0
LINE
8
Layer_1
10
101.358383
20
169.104491
11
102.500647
21
167.178883
0
LINE
8
Layer_1
10
102.500647
20
167.178883
11
104.822925
21
167.077874
0
LINE
8
Layer_1
10
99.305031
20
179.190528
11
97.654754
21
176.285482
0
LINE
8
Layer_1
10
97.654754
20
176.285482
11
97.692314
21
175.841733
0
LINE
8
Layer_1
10
105.068178
20
170.078400
11
105.117772
21
172.668223
0
LINE
8
Layer_1
10
105.117772
20
172.668223
11
105.281095
21
173.480046
0
LINE
8
Layer_1
10
105.281095
20
173.480046
11
105.760488
21
174.338763
0
LINE
8
Layer_1
10
105.760488
20
174.338763
11
106.591438
21
175.188114
0
LINE
8
Layer_1
10
106.591438
20
175.188114
11
107.476857
21
175.805185
0
LINE
8
Layer_1
10
107.476857
20
175.805185
11
107.780918
21
175.851410
0
LINE
8
Layer_1
10
107.780918
20
175.851410
11
108.022035
21
175.734013
0
LINE
8
Layer_1
10
108.022035
20
175.734013
11
108.172409
21
175.403309
0
LINE
8
Layer_1
10
108.172409
20
175.403309
11
107.875782
21
175.041264
0
LINE
8
Layer_1
10
107.875782
20
175.041264
11
107.067790
21
174.344045
0
LINE
8
Layer_1
10
107.067790
20
174.344045
11
106.460371
21
173.697305
0
LINE
8
Layer_1
10
106.460371
20
173.697305
11
106.143227
21
172.958333
0
LINE
8
Layer_1
10
106.143227
20
172.958333
11
106.034967
21
171.755638
0
LINE
8
Layer_1
10
106.034967
20
171.755638
11
106.054199
21
169.717730
0
LINE
8
Layer_1
10
104.822925
20
167.077874
11
105.041348
21
167.132674
0
LINE
8
Layer_1
10
105.041348
20
167.132674
11
105.068178
21
170.078400
0
LINE
8
Layer_1
10
106.874124
20
167.041964
11
110.247967
21
166.978364
0
LINE
8
Layer_1
10
106.054199
20
169.717730
11
106.111108
21
167.089564
0
LINE
8
Layer_1
10
106.111108
20
167.089564
11
106.874124
21
167.041964
0
LINE
8
Layer_1
10
132.312423
20
180.993426
11
134.635650
21
185.494030
0
LINE
8
Layer_1
10
134.635650
20
185.494030
11
132.069844
21
189.902235
0
LINE
8
Layer_1
10
110.247967
20
166.978364
11
112.858794
21
166.962364
0
LINE
8
Layer_1
10
112.858794
20
166.962364
11
113.076868
21
167.180484
0
LINE
8
Layer_1
10
129.123757
20
194.270279
11
123.866354
21
194.378779
0
LINE
8
Layer_1
10
123.866354
20
194.378779
11
119.677699
21
194.405217
0
LINE
8
Layer_1
10
119.677699
20
194.405217
11
118.850510
21
194.284879
0
LINE
8
Layer_1
10
118.850510
20
194.284879
11
113.970874
21
185.809370
0
LINE
8
Layer_1
10
132.069844
20
189.902235
11
129.500257
21
194.218379
0
LINE
8
Layer_1
10
129.500257
20
194.218379
11
129.123757
21
194.270279
0
LINE
8
Layer_1
10
116.159434
20
181.358446
11
118.675370
21
176.859871
0
LINE
8
Layer_1
10
113.970874
20
185.809370
11
113.841459
21
185.538490
0
LINE
8
Layer_1
10
113.841459
20
185.538490
11
116.159434
21
181.358446
0
LINE
8
Layer_1
10
118.675370
20
176.859871
11
118.873320
21
176.541342
0
LINE
8
Layer_1
10
118.873320
20
176.541342
11
124.433153
21
176.563142
0
LINE
8
Layer_1
10
124.433153
20
176.563142
11
129.992986
21
176.584942
0
LINE
8
Layer_1
10
129.992986
20
176.584942
11
132.312423
21
180.993426
 0 
ENDSEC
 0 
EOF